<svg xmlns="http://www.w3.org/2000/svg" width="373.09" height="352.812" viewBox="0 0 373.09 352.812">
  <g id="hire-android-app" transform="translate(-10.895 -20.878)">
    <g id="freepik--Shadows--inject-11" transform="translate(85.48 193.117)">
      <path id="freepik--Shadow--inject-11" d="M389.1,321.634l-99.709,57.592a2.943,2.943,0,0,1-2.68,0L142.957,296.268a.8.8,0,0,1,0-1.547l99.709-57.592a2.943,2.943,0,0,1,2.68,0L389.1,320.086a.8.8,0,0,1,0,1.547Z" transform="translate(-97.521 -236.805)" fill="#e6e6e6"/>
      <ellipse id="freepik--shadow--inject-11-2" data-name="freepik--shadow--inject-11" cx="59.889" cy="34.579" rx="59.889" ry="34.579" transform="translate(0 105.48)" fill="#fff"/>
      <ellipse id="freepik--shadow--inject-11-3" data-name="freepik--shadow--inject-11" cx="29.594" cy="17.086" rx="29.594" ry="17.086" transform="translate(208.065 119.367)" fill="#e6e6e6"/>
    </g>
    <g id="freepik--Desk--inject-11" transform="translate(141.038 48.543)">
      <g id="freepik--desk--inject-11-2" data-name="freepik--desk--inject-11" transform="translate(0)">
        <g id="freepik--Table--inject-11" transform="translate(0 57.395)">
          <path id="Path_125" data-name="Path 125" d="M327.551,286.2v88.542a1.978,1.978,0,0,1-.893,1.548l-1.9,1.093a1.962,1.962,0,0,1-1.787,0l-1.9-1.093a1.978,1.978,0,0,1-.893-1.547V286.2c0-.566.4-.8.893-.511l1.9,1.093a1.962,1.962,0,0,0,1.787,0l1.9-1.093C327.152,285.4,327.551,285.633,327.551,286.2Z" transform="translate(-189.059 -159.491)" fill="#37474f"/>
          <path id="Path_126" data-name="Path 126" d="M322.972,377.341l-1.9-1.093a1.978,1.978,0,0,1-.893-1.547V286.2c0-.566.4-.8.893-.511l1.9,1.093a1.978,1.978,0,0,1,.893,1.524v88.542C323.865,377.4,323.466,377.644,322.972,377.341Z" transform="translate(-189.059 -159.491)" fill="#999"/>
          <path id="Path_127" data-name="Path 127" d="M429.06,227.558v88.494a1.954,1.954,0,0,1-.893,1.547l-1.9,1.117a2.01,2.01,0,0,1-1.787,0l-1.9-1.1a1.978,1.978,0,0,1-.893-1.547v-88.51c0-.566.407-.8.893-.518l1.9,1.1a1.962,1.962,0,0,0,1.787,0l1.9-1.1C428.662,226.76,429.06,226.984,429.06,227.558Z" transform="translate(-209.597 -147.625)" fill="#37474f"/>
          <path id="Path_128" data-name="Path 128" d="M424.482,318.716l-1.9-1.1a1.978,1.978,0,0,1-.893-1.547v-88.51c0-.566.407-.8.893-.518l1.9,1.1a1.97,1.97,0,0,1,.893,1.547v88.494A.561.561,0,0,1,424.482,318.716Z" transform="translate(-209.597 -147.625)" fill="#999"/>
          <path id="Path_129" data-name="Path 129" d="M190.84,207.309v88.542a1.978,1.978,0,0,1-.893,1.547l-1.9,1.093a1.962,1.962,0,0,1-1.787,0l-1.9-1.093a1.978,1.978,0,0,1-.893-1.547V207.309c0-.566.4-.8.893-.51l1.922,1.093a1.962,1.962,0,0,0,1.787,0l1.9-1.093C190.442,206.512,190.84,206.743,190.84,207.309Z" transform="translate(-161.398 -143.529)" fill="#37474f"/>
          <path id="Path_130" data-name="Path 130" d="M186.292,298.441l-1.9-1.093a1.978,1.978,0,0,1-.893-1.547V207.259c0-.566.4-.8.893-.51l1.9,1.133a1.978,1.978,0,0,1,.893,1.547v88.494C187.161,298.5,186.762,298.728,186.292,298.441Z" transform="translate(-161.404 -143.519)" fill="#455a64"/>
          <path id="Path_131" data-name="Path 131" d="M392.868,213.739v-.646a3.581,3.581,0,0,0-1.6-2.816L248.49,127.9a3.6,3.6,0,0,0-3.255,0L157.4,178.633a3.582,3.582,0,0,0-1.6,2.816v.694a3.582,3.582,0,0,0,1.6,2.816l142.783,82.368a3.653,3.653,0,0,0,3.254,0l87.84-50.772a3.582,3.582,0,0,0,1.6-2.816Z" transform="translate(-155.8 -127.512)" fill="#999"/>
          <path id="Path_132" data-name="Path 132" d="M392.868,213.739v-.646a3.581,3.581,0,0,0-1.6-2.816L248.49,127.9a3.6,3.6,0,0,0-3.255,0L157.4,178.633a3.582,3.582,0,0,0-1.6,2.816v.694a3.582,3.582,0,0,0,1.6,2.816l142.783,82.368a3.653,3.653,0,0,0,3.254,0l87.84-50.772a3.582,3.582,0,0,0,1.6-2.816Z" transform="translate(-155.8 -127.512)" opacity="0.6"/>
          <path id="Path_133" data-name="Path 133" d="M338.82,284.33v4.4a3.382,3.382,0,0,0,1.6-.391L428.3,237.61a3.6,3.6,0,0,0,1.6-2.816v-.654a3.613,3.613,0,0,0-1.324-2.6c.582.5.487,1.2-.3,1.667l-87.84,50.732a3.294,3.294,0,0,1-1.611.391Z" transform="translate(-192.83 -148.56)" fill="#999"/>
          <path id="Path_134" data-name="Path 134" d="M338.82,284.33v4.4a3.382,3.382,0,0,0,1.6-.391L428.3,237.61a3.6,3.6,0,0,0,1.6-2.816v-.654a3.613,3.613,0,0,0-1.324-2.6c.582.5.487,1.2-.3,1.667l-87.84,50.732a3.294,3.294,0,0,1-1.611.391Z" transform="translate(-192.83 -148.56)" opacity="0.5"/>
          <path id="Path_135" data-name="Path 135" d="M391.5,212.152l-87.856,50.74a3.6,3.6,0,0,1-3.255,0L157.6,180.548a.989.989,0,0,1,0-1.875l87.84-50.772a3.6,3.6,0,0,1,3.254,0L391.5,210.277a.989.989,0,0,1,0,1.875Z" transform="translate(-156.028 -127.512)" fill="#fff"/>
          <path id="Path_136" data-name="Path 136" d="M391.5,212.152l-87.856,50.74a3.6,3.6,0,0,1-3.255,0L157.6,180.548a.989.989,0,0,1,0-1.875l87.84-50.772a3.6,3.6,0,0,1,3.254,0L391.5,210.277a.989.989,0,0,1,0,1.875Z" transform="translate(-156.028 -127.512)" opacity="0.4"/>
        </g>
        <g id="freepik--Keyboard--inject-11" transform="translate(30.077 111.805)">
          <path id="freepik--shadow--inject-11-4" data-name="freepik--shadow--inject-11" d="M303.7,222.835,282.888,234.88a2.592,2.592,0,0,1-2.337,0l-61.485-35.449a.71.71,0,0,1,0-1.348l20.811-12.053a2.6,2.6,0,0,1,2.329,0L303.7,221.487a.71.71,0,0,1,0,1.348Z" transform="translate(-218.579 -183.707)" opacity="0.15"/>
          <g id="freepik--keyboard--inject-11-2" data-name="freepik--keyboard--inject-11" transform="translate(1.747)">
            <path id="Path_137" data-name="Path 137" d="M220.77,195.426a.8.8,0,0,1,.487-.67l19.551-11.287a2.553,2.553,0,0,1,2.329,0l59.666,34.5a.8.8,0,0,1,.479.678v2.05a.8.8,0,0,1-.479.67L283.26,232.653a2.569,2.569,0,0,1-2.337,0l-59.666-34.459a.8.8,0,0,1-.487-.67Z" transform="translate(-220.77 -183.188)" fill="#263238"/>
            <path id="Path_138" data-name="Path 138" d="M283.26,230.555,302.8,219.316a.71.71,0,0,0,0-1.348l-59.666-34.5a2.553,2.553,0,0,0-2.329,0l-19.551,11.287a.71.71,0,0,0,0,1.348l59.666,34.444a2.592,2.592,0,0,0,2.337.008Z" transform="translate(-220.769 -183.188)" fill="#37474f"/>
            <path id="Path_139" data-name="Path 139" d="M297.74,239.818v2.1a2.329,2.329,0,0,0,1.093-.271l19.535-11.279a.8.8,0,0,0,.487-.678V227.63a.8.8,0,0,1-.487.678l-19.535,11.239A2.393,2.393,0,0,1,297.74,239.818Z" transform="translate(-236.343 -192.179)" fill="#263238"/>
            <path id="Path_140" data-name="Path 140" d="M225.306,196.134h0l1.93-1.117,2.624,1.516-1.946,1.157-2.624-1.516Zm3.031-1.747,1.938-1.117,2.066,1.189-1.946,1.1-2.058-1.189Zm.638,3.869,1.938-1.117,2.058,1.189-1.946,1.157-2.058-1.189Zm2.393-5.584h0l1.938-1.117,3.326,1.93-1.946,1.149-3.326-1.922Zm.072,3.542h0l1.93-1.125,1.643.949-1.938,1.117-1.635-.965Zm.638,3.861h0l1.93-1.117,2.066,1.189L234.12,201.3l-2.058-1.189Zm2.042-2.313,1.93-1.117,1.6.949-1.946,1.157-1.6-.949Zm.271-6.844h0l1.938-1.117,2.624,1.516-1.93,1.1L234.4,190.9Zm.8,10.952h0l1.93-1.117,14.9,8.6-1.946,1.157-14.9-8.6Zm.558-6.677h0l1.93-1.117,1.6.949-1.946,1.149-1.635-.941Zm1.061,4.116,1.93-1.117,1.635.949-1.946,1.157-1.635-.949Zm.614-10.13h0l1.93-1.117,1.643.949-1.946,1.149-1.619-.981Zm.638,3.869h0l1.93-1.117,1.643.941-1.93,1.093-1.643-.941Zm.359,3.7h0l1.93-1.117,1.635.949-1.946,1.149-1.635-.941Zm1.061,4.116,1.93-1.117,1.6.949-1.946,1.157-1.6-.949Zm.622-10.138h0l1.93-1.117,1.643.949-1.946,1.149-1.6-.941Zm.638,3.869h0l1.93-1.117,1.643.941-1.946,1.157-1.635-.941Zm.359,3.7h0l1.93-1.117,1.6.949-1.946,1.149-1.6-.941Zm0-11.239h0l1.93-1.117,2.066,1.189-1.954,1.157-2.058-1.189Zm1.061,15.355,1.93-1.117,1.635.949L243.78,203.4l-1.635-.949Zm.622-10.138h0l1.93-1.117,1.643.949-1.93,1.061-1.635-.941Zm.638,3.869h0l1.93-1.117,1.643.941-1.946,1.157-1.643-1.005Zm.359,3.7h0l1.93-1.117,1.635.949-1.946,1.149-1.635-.941Zm1.061,4.116,1.93-1.117,1.6.949-1.946,1.157-1.6-.949Zm.526-14.438h0l1.938-1.117,1.635.941-1.946,1.157-1.635-.941Zm.1,4.3h0l1.93-1.117,1.643.949-1.938,1.109-1.6-.941Zm.638,3.869h0l1.93-1.117,1.643.941-1.946,1.157-1.635-.941Zm.359,3.7h0l1.93-1.117,1.6.949-1.946,1.149-1.6-.941Zm1.061,4.116h0l1.946-1.173,1.6.949-1.946,1.157-1.635-.949Zm.526-14.438h0l1.93-1.117,1.643.941-1.946,1.157-1.6-.941Zm.1,4.3h0l1.93-1.117,1.643.949-1.93,1.085-1.6-.941Zm.638,3.869h0l1.93-1.117,1.643.941-1.946,1.157-1.635-.941Zm.359,3.7h0l1.938-1.117,1.635.949-1.946,1.149-1.635-.941Zm1.061,4.116h0l1.93-1.125,1.635.949-1.946,1.157-1.635-.949Zm.526-14.438h0l1.938-1.117,1.635.941-1.946,1.157-1.635-.941Zm.1,4.3h0l1.938-1.117,1.635.949-1.954,1.149-1.6-.941Zm.3,14.167,1.938-1.117,2.058,1.189-1.946,1.157-2.058-1.189Zm.343-10.3h0l1.93-1.117,1.643.941-1.946,1.157-1.635-.941Zm.359,3.7h0l1.938-1.117,1.611.885-1.946,1.149-1.635-.941Zm1.061,4.116,1.93-1.117,1.643.949-1.954,1.157-1.635-.949Zm.526-14.438h0l1.938-1.117,1.619.917-1.946,1.157-1.635-.941Zm.1,4.3h0l1.938-1.117,1.635.949-1.946,1.149L253.5,198.5Zm.638,3.869h0l1.938-1.117,1.6.941-1.946,1.157-1.6-.941Zm.08,10.537h0l1.938-1.117,2.058,1.189-1.946,1.157-2.058-1.189Zm.279-6.836h0l1.93-1.117,1.6.949-1.859,1.085-1.6-.941Zm1.061,4.116,1.93-1.117,1.643.949-1.954,1.157-1.635-.949Zm.622-10.138h0l1.938-1.117,1.6.949-1.946,1.149-1.6-1.005Zm.638,3.869h0l1.938-1.117,1.635.941-1.946,1.157-1.635-.941Zm.359,3.7h0l1.93-1.117,1.635.949-1.946,1.149-1.619-1.037Zm.08-11.167h0L259.2,195.3l1.635.949-1.946,1.157-1.627-1.045Zm.064,18.275,1.938-1.117,2.058,1.189-1.962,1.069L257.3,214.64Zm.917-2.967h0l1.93-1.125,1.643.949-1.954,1.157-1.6-.949Zm.622-10.138,1.93-1.117,1.643.949-1.946,1.149-1.635-.941Zm.638,3.869h0l1.938-1.117,1.635.941-1.946,1.157-1.635-.941Zm.359,3.7h0l1.93-1.117,1.643.949-1.954,1.149-1.619-1.013Zm.08-11.167h0l1.938-1.117,1.635.949-1.946,1.157-1.6-.949Zm.495,18.522,1.938-1.125L265,216.9l-1.946,1.157-2.624-1.516Zm.487-3.191h0l1.93-1.125,5.169,2.983-1.946,1.157-5.121-3.119Zm.622-10.138h0l1.938-1.117,1.635.949-1.946,1.149-1.635-.941Zm.638,3.869h0l1.938-1.117,1.619.8-1.946,1.157-1.635-.941Zm.359,3.7h0l1.93-1.117,1.643.949-1.97,1.013-1.6-.941Zm.08-11.167h0l1.938-1.117,1.635.949-1.946,1.157-1.635-.949Zm1.6,5.169h0l1.938-1.117,1.635.949-1.946,1.149-1.635-.941ZM264.655,219h0l1.93-1.117,1.643.941-1.954,1.157-1.6-.941Zm.2-10.37h0l1.938-1.117,1.6.941-1.851.989-1.6-.941Zm.359,3.7h0l1.93-1.117,1.5.861a.957.957,0,0,0,.471.1,1.061,1.061,0,0,0,.495-.1l2.545-1.468,1.914,1.109-4.97,2.9-3.9-2.249Zm.08-11.167h0l1.938-1.117,1.635.949-1.93.949-1.635-.949Zm1.6,5.169h0l1.93-1.117,1.643.949-1.946,1.149-1.6-.941Zm.439,14.246h0l1.93-1.117,1.643.941-1.954,1.157-1.6-.941Zm.2-10.37h0l1.938-1.117,1.635.941-1.946,1.157-1.635-.941Zm1.6-6.82h0l1.93-1.117,1.643.941-1.954,1.157-1.635-.941Zm.439,4.5h0l1.93-1.117,1.643.949-1.946,1.149-1.635-.941ZM270,222.13h0l1.938-1.117,1.635.941-1.954,1.157-1.6-.941Zm.351-3.294,1.93-1.117,1.643.949-1.954,1.157-1.6-1.133Zm1.452-13.9h0l1.93-1.117,1.635.941-1.946,1.157-1.635-.941Zm.439,4.5h0l1.938-1.117,2.9,1.675-1.946,1.157-2.9-1.675ZM273.246,224h0l1.93-1.117,4.323,2.489-1.954,1.157-4.315-2.489Zm.479-10.218h0l1.938-1.117,1.635.949-1.946,1.149-1.635-.941Zm.758-7.307h0l1.93-1.117,1.635.941-1.938.957-1.6-.941Zm1.795,15.778h0l1.938-1.117,1.635.949-1.946,1.157-1.635-.949Zm.128-6.924h0l1.938-1.117,1.6.949-1.946,1.149-1.6-.941Zm.351-3.294h0l1.938-1.117,1.6.941-1.946,1.157-1.6-.941Zm.407-3.988h0l1.93-1.117,1.6.941-1.946,1.157-1.6-.941Zm1.444,19.072h0l1.93-1.117,1.643.941-1.954,1.157-1.6-.941Zm.351-3.294h0l1.938-1.117,1.6.949-1.946,1.157-1.6-.949Zm.128-6.924h0l1.938-1.117,1.635.949-1.946,1.149-1.635-.941Zm.223,3.621,1.938-1.117,1.6.949-1.946,1.149-1.6-.941Zm.128-6.916h0l1.938-1.117,1.635.941-1.946,1.157-1.635-.941Zm1-3.669h0l1.93-1.117,1.643.941-1.906.949-1.635-.941Zm.854,18.729h0l4.962-2.872,1.635.949-4.97,2.9-1.643-.941Zm.351-3.294h0l1.938-1.117,1.635.949-1.922.925-1.6-.949Zm.351-3.3,1.938-1.117,1.635.949-1.946,1.149-1.6-1.173Zm.128-6.916h0l1.938-1.117,1.635.941-1.946,1.157-1.635-.941Zm.215,3.621h0l1.938-1.117,1.635.941-1.946,1.157-1.635-.941Zm.8-7.291h0l1.93-1.117,1.643.941-1.946,1.157-1.635-.941Zm1.555,12.133,1.938-1.117,1.635.949-1.946,1.157-1.619-1.133Zm.343-3.294h0l1.938-1.117,1.635.941-1.922.933-1.635-.941Zm.351-3.294h0l1.93-1.117,1.643.941L287,218.014l-1.6-.941Zm.431-3.988h0l1.93-1.117,1.643.941-1.946,1.157-1.635-.941Zm1.555,12.133h0l4.97-2.864,1.635.941-4.977,2.911-1.635-.949Zm.343-3.294h0l1.938-1.117,1.635.941-1.946,1.157-1.635-.941Zm.351-3.294h0l1.93-1.117,1.643.941-1.962.925-1.6-.941Zm1.779-4.124h0l.8-.487,1.643.949-.846.518-1.6-.941Zm.9,5.671h0l1.93-1.117,1.643.941-1.954,1.157-1.6-.941Zm1.779-4.124h0l.8-.487,1.643.949-.846.518-1.6-.941Zm.9,5.671h0l1.93-1.117,1.643.941-1.954,1.157-1.6-.941Zm1.779-4.124h0l.8-.487,1.643.949-.846.518-1.6-.941Zm2.672,1.547h0l.8-.487,1.643.949-.846.518-1.6-.941Z" transform="translate(-221.684 -183.744)" fill="#00add9"/>
          </g>
        </g>
        <g id="freepik--Device--inject-11" transform="translate(91.748)">
          <path id="freepik--shadow--inject-11-5" data-name="freepik--shadow--inject-11" d="M362.361,219.083l18.307-10.569L289.127,155.66,270.82,166.229Z" transform="translate(-270.82 -75.813)" opacity="0.15"/>
          <g id="freepik--Monitor--inject-11" transform="translate(3.077)">
            <path id="Path_141" data-name="Path 141" d="M316.762,204.076,303.7,196.515a3.456,3.456,0,0,1-2.026-2.816V191.88l12.3-6.98a2.888,2.888,0,0,0,1.3-2.257V166.53L338.1,179.724v16.113a2.888,2.888,0,0,1-1.3,2.257l-10.274,5.983A10.8,10.8,0,0,1,316.762,204.076Z" transform="translate(-280.138 -78.012)" fill="#e6e6e6"/>
            <path id="Path_142" data-name="Path 142" d="M340.47,201.405v1.811l4.18-2.393a2.872,2.872,0,0,0,1.3-2.257V182.453L341.6,179.94c-.088,1.109-.191,2.249-.279,3.358l3.047,1.771v12.587a2.848,2.848,0,0,1-1.3,2.257Z" transform="translate(-287.989 -80.725)" fill="#e0e0e0"/>
            <path id="Path_143" data-name="Path 143" d="M336.519,195.591a2.872,2.872,0,0,1-1.3,2.257l-8.695,5.073a10.8,10.8,0,0,1-9.763,0l-13.074-7.562c-2.7-1.547-2.7-4.076,0-5.632l8.7-5.073a2.871,2.871,0,0,0,1.3-2.249v-12.6L336.519,183Z" transform="translate(-280.137 -78.676)" fill="#f5f5f5"/>
            <path id="Path_144" data-name="Path 144" d="M311.79,186.186h0l2.648-1.532a2.872,2.872,0,0,0,1.3-2.249v-12.6L338.568,183v12.587a2.872,2.872,0,0,1-1.3,2.257l-2.6,1.508Z" transform="translate(-282.186 -78.676)" fill="#ebebeb"/>
            <path id="Path_145" data-name="Path 145" d="M301.67,198.31v1.819a3.441,3.441,0,0,0,2.018,2.816l13.074,7.554a9.827,9.827,0,0,0,4.658,1.157v-1.811a9.827,9.827,0,0,1-4.658-1.157l-13.074-7.562A3.431,3.431,0,0,1,301.67,198.31Z" transform="translate(-280.138 -84.442)" fill="#ebebeb"/>
            <path id="Path_146" data-name="Path 146" d="M367.72,189.864a3.486,3.486,0,0,1-3.151-.056l-88.294-50.939a3.582,3.582,0,0,1-1.6-2.816V58.735a3.055,3.055,0,0,1,4.682-2.7l88.286,50.979a3.582,3.582,0,0,1,1.6,2.816V187.1A3.478,3.478,0,0,1,367.72,189.864Z" transform="translate(-274.677 -55.56)" fill="#455a64"/>
            <path id="Path_147" data-name="Path 147" d="M364.57,190.31l-88.294-50.931a3.582,3.582,0,0,1-1.6-2.816V59.237c0-1.037.726-1.452,1.6-.933l88.294,50.971a3.605,3.605,0,0,1,1.6,2.816v77.286C366.2,190.43,365.463,190.829,364.57,190.31Z" transform="translate(-274.678 -56.07)" fill="#37474f"/>
            <path id="Path_148" data-name="Path 148" d="M387.67,221.338a3.039,3.039,0,0,0,4.435-2.824V209.82l-3.047,1.739v8.695C389.058,221.227,388.46,221.649,387.67,221.338Z" transform="translate(-297.539 -86.771)" fill="#e0e0e0"/>
            <path id="Path_149" data-name="Path 149" d="M366.2,198.6v8.695c0,1.037-.734,1.46-1.6.941L276.275,157.28a3.582,3.582,0,0,1-1.6-2.816V145.77Z" transform="translate(-274.678 -73.812)" fill="#fff"/>
            <path id="Path_150" data-name="Path 150" d="M363.909,175.538V114.372a2.17,2.17,0,0,0-.973-1.691l-83.492-48.2c-.534-.311-.973-.064-.973.558V126.21a2.146,2.146,0,0,0,.973,1.691l83.492,48.2C363.446,176.415,363.909,176.16,363.909,175.538Z" transform="translate(-275.444 -57.339)" fill="#00add9"/>
            <path id="Path_151" data-name="Path 151" d="M363.909,175.538V114.372a2.17,2.17,0,0,0-.973-1.691l-83.492-48.2c-.534-.311-.973-.064-.973.558V126.21a2.146,2.146,0,0,0,.973,1.691l83.492,48.2C363.446,176.415,363.909,176.16,363.909,175.538Z" transform="translate(-275.444 -57.339)" fill="#fff" opacity="0.5"/>
            <path id="Path_152" data-name="Path 152" d="M331.612,183.019a3.382,3.382,0,0,1,1.524,2.64c0,.973-.686,1.372-1.524.885a3.382,3.382,0,0,1-1.532-2.648C330.1,182.963,330.814,182.532,331.612,183.019Z" transform="translate(-285.887 -81.307)" fill="#455a64"/>
            <path id="Path_153" data-name="Path 153" d="M388.81,123.337a3.51,3.51,0,0,1,.479,1.6v68.775l3.047-1.763V123.185a3.351,3.351,0,0,0-.479-1.6Z" transform="translate(-297.769 -68.919)" fill="#263238"/>
          </g>
        </g>
        <g id="freepik--Window--inject-11" transform="translate(97.664 6.601)">
          <g id="freepik--window--inject-11-2" data-name="freepik--window--inject-11">
            <path id="Path_154" data-name="Path 154" d="M292.746,39.132a.7.7,0,0,1,0-.114h0a.53.53,0,0,1,0-.108.506.506,0,0,1,.07-.158.21.21,0,0,1,.038-.063l.038-.044a.506.506,0,0,1,.082-.082h0a.635.635,0,0,1,.108-.063.906.906,0,0,1,.83.108l81.86,47.235a2.756,2.756,0,0,1,1.236,2.148v59.243h0v.272a.843.843,0,0,1-.444.741l-.057.038-.063.038h-.108a.634.634,0,0,1-.158,0,.818.818,0,0,1-.406-.12h-.032l-1.09-.665-80.675-46.563a2.737,2.737,0,0,1-1.236-2.142V39.265C292.74,39.233,292.746,39.182,292.746,39.132Z" transform="translate(-292.74 -36.813)" fill="#455a64"/>
            <path id="Path_155" data-name="Path 155" d="M293.38,37.93a.906.906,0,0,1,.83.108l81.86,47.235a2.757,2.757,0,0,1,1.236,2.148v4.068l1.578-.925V86.552a2.738,2.738,0,0,0-1.236-2.142l-81.86-47.267a.862.862,0,0,0-.893-.076C294.673,37.207,293.646,37.79,293.38,37.93Z" transform="translate(-292.974 -35.479)" fill="#00add9"/>
            <path id="Path_156" data-name="Path 156" d="M292.74,38.852c0-.779.312-2.807.99-2.414l3.785,2.257,78.32,46.7a2.718,2.718,0,0,1,1.236,2.142V91.6L292.74,42.914Z" transform="translate(-292.74 -36.388)" fill="#00add9"/>
            <path id="Path_158" data-name="Path 158" d="M427.192,118.445v-4.018a2.535,2.535,0,0,0-.374-1.267l-1.578.906a2.433,2.433,0,0,1,.374,1.229v4.1Z" transform="translate(-341.276 -64.183)" opacity="0.15"/>
            <path id="Path_159" data-name="Path 159" d="M421.017,114.5a1.844,1.844,0,0,1,.7,1.483c0,.589-.311.893-.7.672a1.844,1.844,0,0,1-.7-1.483C420.32,114.58,420.63,114.276,421.017,114.5Z" transform="translate(-339.474 -64.647)" fill="#455a64"/>
            <path id="Path_160" data-name="Path 160" d="M417.047,112.208a1.831,1.831,0,0,1,.7,1.476c0,.6-.31.894-.7.672a1.831,1.831,0,0,1-.7-1.476C416.35,112.284,416.66,111.986,417.047,112.208Z" transform="translate(-338.02 -63.807)" fill="#455a64"/>
            <path id="Path_161" data-name="Path 161" d="M413.077,109.948a1.844,1.844,0,0,1,.7,1.483c0,.589-.31.893-.7.672a1.85,1.85,0,0,1-.7-1.483C412.38,109.992,412.69,109.694,413.077,109.948Z" transform="translate(-336.565 -62.973)" fill="#455a64"/>
            <path id="Path_162" data-name="Path 162" d="M425.116,178.749l.063-.038,1.305-.755a1.308,1.308,0,0,0,.634-.959,1.676,1.676,0,0,0,0-.178V121.49l-1.584.933V178a.819.819,0,0,1-.387.7h-.038Z" transform="translate(-341.229 -67.235)" fill="#263238" opacity="0.9"/>
          </g>
          <g id="freepik--Code--inject-11" transform="translate(2.009 11.188)">
            <path id="Path_163" data-name="Path 163" d="M332.057,79.4l17.255,9.943a.938.938,0,0,1,.444.729c0,.266-.2.368-.444.222l-17.255-9.943a.944.944,0,0,1-.437-.729C331.62,79.359,331.816,79.264,332.057,79.4Z" transform="translate(-308.991 -62.982)" fill="#ba68c8"/>
            <path id="Path_164" data-name="Path 164" d="M342.463,109.444l6.514,3.764a.938.938,0,0,1,.437.729c0,.26-.2.361-.437.222l-6.514-3.751a.925.925,0,0,1-.444-.729C342.007,109.406,342.216,109.3,342.463,109.444Z" transform="translate(-312.8 -73.987)" fill="#e6e6e6"/>
            <path id="Path_165" data-name="Path 165" d="M342.463,115.453l6.514,3.758a.957.957,0,0,1,.437.735c0,.26-.2.361-.437.222l-6.514-3.758a.938.938,0,0,1-.444-.729C342.007,115.409,342.216,115.314,342.463,115.453Z" transform="translate(-312.8 -76.188)" fill="#e6e6e6"/>
            <path id="Path_166" data-name="Path 166" d="M361.977,96.644l34.555,19.9a.957.957,0,0,1,.437.735c0,.26-.2.361-.437.222L361.977,97.6a.957.957,0,0,1-.437-.735C361.54,96.606,361.736,96.5,361.977,96.644Z" transform="translate(-319.951 -69.298)" fill="#ba68c8"/>
            <path id="Path_167" data-name="Path 167" d="M342.687,151.574l10.519,6.09a.925.925,0,0,1,.444.729c0,.26-.2.361-.444.222l-10.519-6.09a.938.938,0,0,1-.437-.729C342.25,151.536,342.446,151.434,342.687,151.574Z" transform="translate(-312.885 -89.42)" fill="#ba68c8"/>
            <path id="Path_168" data-name="Path 168" d="M361.977,162.733l34.555,19.923a.944.944,0,0,1,.437.729c0,.266-.2.361-.437.222l-34.555-19.923a.944.944,0,0,1-.437-.729C361.54,162.689,361.736,162.594,361.977,162.733Z" transform="translate(-319.951 -93.507)" fill="#ba68c8"/>
            <path id="Path_169" data-name="Path 169" d="M332.057,85.424l8.675,4.993a.944.944,0,0,1,.437.729c0,.266-.2.368-.437.222L332.057,86.4a.938.938,0,0,1-.437-.729C331.62,85.386,331.816,85.285,332.057,85.424Z" transform="translate(-308.991 -65.188)" fill="#ba68c8"/>
            <path id="Path_170" data-name="Path 170" d="M332.057,85.424l8.675,4.993a.944.944,0,0,1,.437.729c0,.266-.2.368-.437.222L332.057,86.4a.938.938,0,0,1-.437-.729C331.62,85.386,331.816,85.285,332.057,85.424Z" transform="translate(-308.991 -65.188)" fill="#fff" opacity="0.6"/>
            <path id="Path_171" data-name="Path 171" d="M332.057,91.423l4.068,2.345a.944.944,0,0,1,.437.729c0,.26-.2.361-.437.222L332.057,92.4a.944.944,0,0,1-.437-.729C331.62,91.379,331.816,91.284,332.057,91.423Z" transform="translate(-308.991 -67.386)" fill="#ba68c8"/>
            <path id="Path_172" data-name="Path 172" d="M332.057,91.423l4.068,2.345a.944.944,0,0,1,.437.729c0,.26-.2.361-.437.222L332.057,92.4a.944.944,0,0,1-.437-.729C331.62,91.379,331.816,91.284,332.057,91.423Z" transform="translate(-308.991 -67.386)" fill="#fff" opacity="0.6"/>
            <path id="Path_173" data-name="Path 173" d="M332.057,103.434l4.068,2.345a.957.957,0,0,1,.437.735c0,.26-.2.361-.437.222l-4.068-2.345a.957.957,0,0,1-.437-.735C331.62,103.4,331.816,103.294,332.057,103.434Z" transform="translate(-308.991 -71.785)" fill="#ba68c8"/>
            <path id="Path_174" data-name="Path 174" d="M332.057,103.434l4.068,2.345a.957.957,0,0,1,.437.735c0,.26-.2.361-.437.222l-4.068-2.345a.957.957,0,0,1-.437-.735C331.62,103.4,331.816,103.294,332.057,103.434Z" transform="translate(-308.991 -71.785)" fill="#fff" opacity="0.6"/>
            <path id="Path_175" data-name="Path 175" d="M332.057,109.444l4.068,2.345a.944.944,0,0,1,.437.729c0,.266-.2.368-.437.222l-4.068-2.345a.938.938,0,0,1-.437-.729C331.62,109.406,331.816,109.3,332.057,109.444Z" transform="translate(-308.991 -73.987)" fill="#ba68c8"/>
            <path id="Path_176" data-name="Path 176" d="M332.057,109.444l4.068,2.345a.944.944,0,0,1,.437.729c0,.266-.2.368-.437.222l-4.068-2.345a.938.938,0,0,1-.437-.729C331.62,109.406,331.816,109.3,332.057,109.444Z" transform="translate(-308.991 -73.987)" fill="#fff" opacity="0.6"/>
            <path id="Path_177" data-name="Path 177" d="M348.463,94.854l5.209,3.023a.938.938,0,0,1,.444.729c0,.266-.2.361-.444.222l-5.209-3.016a.951.951,0,0,1-.444-.735C348.007,94.816,348.216,94.714,348.463,94.854Z" transform="translate(-314.998 -68.642)" fill="#ba68c8"/>
            <path id="Path_178" data-name="Path 178" d="M348.463,94.854l5.209,3.023a.938.938,0,0,1,.444.729c0,.266-.2.361-.444.222l-5.209-3.016a.951.951,0,0,1-.444-.735C348.007,94.816,348.216,94.714,348.463,94.854Z" transform="translate(-314.998 -68.642)" fill="#fff" opacity="0.6"/>
            <path id="Path_179" data-name="Path 179" d="M361.184,138.293l35.056,20.183a.938.938,0,0,1,.437.729c0,.26-.2.361-.437.222l-35.056-20.183a.938.938,0,0,1-.444-.729C360.74,138.249,360.936,138.154,361.184,138.293Z" transform="translate(-319.658 -84.554)" fill="#fff"/>
            <path id="Path_180" data-name="Path 180" d="M408.277,159.361l5.215,3.016a.944.944,0,0,1,.437.729c0,.266-.2.361-.437.222l-5.215-3.016a.944.944,0,0,1-.437-.729C407.84,159.317,408.036,159.216,408.277,159.361Z" transform="translate(-336.911 -92.271)" fill="#fff"/>
            <path id="Path_181" data-name="Path 181" d="M350.267,125.961l35.056,20.183a.957.957,0,0,1,.437.735c0,.26-.2.361-.437.222l-35.056-20.189a.951.951,0,0,1-.437-.735C349.83,125.917,350.026,125.816,350.267,125.961Z" transform="translate(-315.662 -80.036)" fill="#fff"/>
            <path id="Path_182" data-name="Path 182" d="M342.463,97.432l8.688,4.993a.925.925,0,0,1,.444.729c0,.26-.2.361-.444.222L342.463,98.4a.938.938,0,0,1-.444-.729C342.007,97.387,342.216,97.286,342.463,97.432Z" transform="translate(-312.8 -69.585)" fill="#ba68c8"/>
            <path id="Path_183" data-name="Path 183" d="M342.463,97.432l8.688,4.993a.925.925,0,0,1,.444.729c0,.26-.2.361-.444.222L342.463,98.4a.938.938,0,0,1-.444-.729C342.007,97.387,342.216,97.286,342.463,97.432Z" transform="translate(-312.8 -69.585)" fill="#fff" opacity="0.6"/>
            <path id="Path_184" data-name="Path 184" d="M358.867,106.863l36.266,20.975a.957.957,0,0,1,.437.735c0,.26-.2.361-.437.222l-36.266-20.981a.944.944,0,0,1-.437-.729C358.43,106.819,358.626,106.724,358.867,106.863Z" transform="translate(-318.812 -73.041)" fill="#ba68c8"/>
            <path id="Path_185" data-name="Path 185" d="M358.867,106.863l36.266,20.975a.957.957,0,0,1,.437.735c0,.26-.2.361-.437.222l-36.266-20.981a.944.944,0,0,1-.437-.729C358.43,106.819,358.626,106.724,358.867,106.863Z" transform="translate(-318.812 -73.041)" fill="#fff" opacity="0.6"/>
            <path id="Path_186" data-name="Path 186" d="M342.456,133.6l46.893,27.052a.944.944,0,0,1,.437.729c0,.266-.2.368-.437.228l-46.893-27.058a.938.938,0,0,1-.456-.722C342,133.559,342.209,133.464,342.456,133.6Z" transform="translate(-312.793 -82.836)" fill="#e6e6e6"/>
            <path id="Path_187" data-name="Path 187" d="M332.057,127.594l4.068,2.345a.944.944,0,0,1,.437.729c0,.266-.2.361-.437.222l-4.068-2.345a.938.938,0,0,1-.437-.729C331.62,127.556,331.816,127.454,332.057,127.594Z" transform="translate(-308.991 -80.635)" fill="#ba68c8"/>
            <path id="Path_188" data-name="Path 188" d="M332.057,127.594l4.068,2.345a.944.944,0,0,1,.437.729c0,.266-.2.361-.437.222l-4.068-2.345a.938.938,0,0,1-.437-.729C331.62,127.556,331.816,127.454,332.057,127.594Z" transform="translate(-308.991 -80.635)" fill="#fff" opacity="0.6"/>
            <path id="Path_189" data-name="Path 189" d="M342.456,139.6l46.893,27.058a.944.944,0,0,1,.437.729c0,.266-.2.361-.437.222l-46.893-27.058a.925.925,0,0,1-.456-.722C342,139.566,342.209,139.464,342.456,139.6Z" transform="translate(-312.793 -85.035)" fill="#e6e6e6"/>
            <path id="Path_190" data-name="Path 190" d="M332.057,133.6l4.068,2.345a.938.938,0,0,1,.437.729c0,.26-.2.361-.437.222l-4.068-2.345a.944.944,0,0,1-.437-.729C331.62,133.559,331.816,133.464,332.057,133.6Z" transform="translate(-308.991 -82.836)" fill="#ba68c8"/>
            <path id="Path_191" data-name="Path 191" d="M332.057,133.6l4.068,2.345a.938.938,0,0,1,.437.729c0,.26-.2.361-.437.222l-4.068-2.345a.944.944,0,0,1-.437-.729C331.62,133.559,331.816,133.464,332.057,133.6Z" transform="translate(-308.991 -82.836)" fill="#fff" opacity="0.6"/>
            <path id="Path_192" data-name="Path 192" d="M342.456,145.613l46.893,27.058a.938.938,0,0,1,.437.729c0,.26-.2.361-.437.222l-46.893-27.058a.938.938,0,0,1-.456-.729C342,145.569,342.209,145.474,342.456,145.613Z" transform="translate(-312.793 -87.236)" fill="#e6e6e6"/>
            <path id="Path_193" data-name="Path 193" d="M332.057,139.6l4.068,2.345a.944.944,0,0,1,.437.729c0,.266-.2.368-.437.228l-4.068-2.351a.938.938,0,0,1-.437-.729C331.62,139.566,331.816,139.464,332.057,139.6Z" transform="translate(-308.991 -85.035)" fill="#ba68c8"/>
            <path id="Path_194" data-name="Path 194" d="M332.057,139.6l4.068,2.345a.944.944,0,0,1,.437.729c0,.266-.2.368-.437.228l-4.068-2.351a.938.938,0,0,1-.437-.729C331.62,139.566,331.816,139.464,332.057,139.6Z" transform="translate(-308.991 -85.035)" fill="#fff" opacity="0.6"/>
            <g id="Group_4" data-name="Group 4" transform="translate(16.292 12.543)" opacity="0.6">
              <path id="Path_195" data-name="Path 195" d="M322.057,73.377l2.389,1.381a.957.957,0,0,1,.431.754v.881c0,.272-.19.387-.431.247l-2.389-1.381a.95.95,0,0,1-.437-.748v-.881C321.62,73.352,321.816,73.244,322.057,73.377Z" transform="translate(-321.62 -73.32)" fill="#fff"/>
              <path id="Path_196" data-name="Path 196" d="M322.057,79.446l2.389,1.381a.957.957,0,0,1,.431.748v.881c0,.279-.19.387-.431.253l-2.389-1.381a.963.963,0,0,1-.437-.754v-.881C321.62,79.42,321.816,79.306,322.057,79.446Z" transform="translate(-321.62 -75.542)" fill="#fff"/>
              <path id="Path_197" data-name="Path 197" d="M322.057,85.507l2.389,1.381a.957.957,0,0,1,.431.754v.881c0,.272-.19.387-.431.247l-2.389-1.381a.963.963,0,0,1-.437-.748v-.881C321.62,85.482,321.816,85.374,322.057,85.507Z" transform="translate(-321.62 -77.764)" fill="#fff"/>
              <path id="Path_198" data-name="Path 198" d="M322.057,91.576l2.389,1.381a.957.957,0,0,1,.431.748v.881c0,.279-.19.387-.431.253l-2.389-1.381a.963.963,0,0,1-.437-.754v-.881C321.62,91.55,321.816,91.436,322.057,91.576Z" transform="translate(-321.62 -79.986)" fill="#fff"/>
              <path id="Path_199" data-name="Path 199" d="M322.057,97.636l2.389,1.381a.957.957,0,0,1,.431.754v.874c0,.279-.19.393-.431.253l-2.389-1.381a.963.963,0,0,1-.437-.748v-.881C321.62,97.61,321.816,97.5,322.057,97.636Z" transform="translate(-321.62 -82.206)" fill="#fff"/>
              <path id="Path_200" data-name="Path 200" d="M322.057,103.706l2.389,1.381a.944.944,0,0,1,.431.748v.881c0,.279-.19.387-.431.253l-2.389-1.381a.963.963,0,0,1-.437-.754v-.881C321.62,103.68,321.816,103.566,322.057,103.706Z" transform="translate(-321.62 -84.429)" fill="#fff"/>
              <path id="Path_201" data-name="Path 201" d="M322.057,109.766l2.389,1.381a.957.957,0,0,1,.431.754v.874c0,.279-.19.393-.431.253l-2.389-1.381a.963.963,0,0,1-.437-.748v-.881C321.62,109.74,321.816,109.626,322.057,109.766Z" transform="translate(-321.62 -86.649)" fill="#fff"/>
              <path id="Path_202" data-name="Path 202" d="M322.057,115.836l2.389,1.381a.944.944,0,0,1,.431.748v.881c0,.279-.19.387-.431.247l-2.389-1.375a.963.963,0,0,1-.437-.754v-.881C321.62,115.81,321.816,115.7,322.057,115.836Z" transform="translate(-321.62 -88.872)" fill="#fff"/>
              <path id="Path_203" data-name="Path 203" d="M322.057,121.9l2.389,1.381a.957.957,0,0,1,.431.754v.874c0,.279-.19.393-.431.253l-2.389-1.381a.963.963,0,0,1-.437-.754v-.874C321.62,121.87,321.816,121.756,322.057,121.9Z" transform="translate(-321.62 -91.092)" fill="#fff"/>
              <path id="Path_204" data-name="Path 204" d="M322.057,127.968l2.389,1.381a.938.938,0,0,1,.431.748v.881c0,.279-.19.387-.431.247l-2.389-1.356a.963.963,0,0,1-.437-.754v-.881C321.62,127.968,321.816,127.829,322.057,127.968Z" transform="translate(-321.62 -93.319)" fill="#fff"/>
              <path id="Path_205" data-name="Path 205" d="M322.057,134.024l2.389,1.381a.957.957,0,0,1,.431.754v.874c0,.279-.19.393-.431.253l-2.389-1.4a.963.963,0,0,1-.437-.754v-.875C321.62,133.986,321.816,133.885,322.057,134.024Z" transform="translate(-321.62 -95.534)" fill="#fff"/>
              <path id="Path_206" data-name="Path 206" d="M322.057,140.1l2.389,1.375a.957.957,0,0,1,.431.754v.881c0,.279-.19.387-.431.247l-2.389-1.375a.963.963,0,0,1-.437-.754v-.881C321.62,140.07,321.816,139.956,322.057,140.1Z" transform="translate(-321.62 -97.759)" fill="#fff"/>
            </g>
            <path id="Path_207" data-name="Path 207" d="M296.778,53.643l12.927,7.465a1.9,1.9,0,0,1,.868,1.5v14.93c0,.551-.387.779-.868.5l-12.927-7.465a1.9,1.9,0,0,1-.868-1.5V54.15C295.91,53.592,296.3,53.37,296.778,53.643Z" transform="translate(-295.91 -53.527)" fill="#37474f"/>
            <path id="Path_208" data-name="Path 208" d="M298.917,77.024l1.191.691a.957.957,0,0,1,.444.729c0,.266-.2.361-.444.222l-1.191-.691a.938.938,0,0,1-.437-.729C298.48,76.986,298.676,76.884,298.917,77.024Z" transform="translate(-296.851 -62.111)" fill="#ba68c8"/>
            <path id="Path_209" data-name="Path 209" d="M298.917,77.024l1.191.691a.957.957,0,0,1,.444.729c0,.266-.2.361-.444.222l-1.191-.691a.938.938,0,0,1-.437-.729C298.48,76.986,298.676,76.884,298.917,77.024Z" transform="translate(-296.851 -62.111)" fill="#fff" opacity="0.6"/>
            <path id="Path_210" data-name="Path 210" d="M298.917,57.734l1.191.691a.957.957,0,0,1,.444.729c0,.266-.2.361-.444.222l-1.191-.684a.957.957,0,0,1-.437-.735C298.48,57.7,298.676,57.594,298.917,57.734Z" transform="translate(-296.851 -55.045)" fill="#ba68c8"/>
            <path id="Path_211" data-name="Path 211" d="M298.917,57.734l1.191.691a.957.957,0,0,1,.444.729c0,.266-.2.361-.444.222l-1.191-.684a.957.957,0,0,1-.437-.735C298.48,57.7,298.676,57.594,298.917,57.734Z" transform="translate(-296.851 -55.045)" fill="#fff" opacity="0.6"/>
            <path id="Path_212" data-name="Path 212" d="M301.557,63.113l1.191.684a.944.944,0,0,1,.437.729c0,.266-.2.368-.437.222l-1.191-.684a.944.944,0,0,1-.437-.729C301.12,63.069,301.316,62.974,301.557,63.113Z" transform="translate(-297.818 -57.015)" fill="#ba68c8"/>
            <path id="Path_213" data-name="Path 213" d="M301.557,63.113l1.191.684a.944.944,0,0,1,.437.729c0,.266-.2.368-.437.222l-1.191-.684a.944.944,0,0,1-.437-.729C301.12,63.069,301.316,62.974,301.557,63.113Z" transform="translate(-297.818 -57.015)" fill="#fff" opacity="0.6"/>
            <path id="Path_214" data-name="Path 214" d="M301.557,66.962l1.191.691a.944.944,0,0,1,.437.729c0,.266-.2.361-.437.222l-1.191-.684a.944.944,0,0,1-.437-.729C301.12,66.917,301.316,66.816,301.557,66.962Z" transform="translate(-297.818 -58.424)" fill="#ba68c8"/>
            <path id="Path_215" data-name="Path 215" d="M301.557,66.962l1.191.691a.944.944,0,0,1,.437.729c0,.266-.2.361-.437.222l-1.191-.684a.944.944,0,0,1-.437-.729C301.12,66.917,301.316,66.816,301.557,66.962Z" transform="translate(-297.818 -58.424)" fill="#fff" opacity="0.6"/>
            <path id="Path_216" data-name="Path 216" d="M298.917,69.3l1.191.691a.957.957,0,0,1,.444.729c0,.266-.2.361-.444.222l-1.191-.684a.95.95,0,0,1-.437-.735C298.48,69.266,298.676,69.164,298.917,69.3Z" transform="translate(-296.851 -59.283)" fill="#ba68c8"/>
            <path id="Path_217" data-name="Path 217" d="M298.917,69.3l1.191.691a.957.957,0,0,1,.444.729c0,.266-.2.361-.444.222l-1.191-.684a.95.95,0,0,1-.437-.735C298.48,69.266,298.676,69.164,298.917,69.3Z" transform="translate(-296.851 -59.283)" fill="#fff" opacity="0.6"/>
            <path id="Path_218" data-name="Path 218" d="M301.557,74.684l1.191.691a.938.938,0,0,1,.437.729c0,.26-.2.361-.437.222l-1.191-.691a.938.938,0,0,1-.437-.729C301.12,74.646,301.316,74.544,301.557,74.684Z" transform="translate(-297.818 -61.254)" fill="#ba68c8"/>
            <path id="Path_219" data-name="Path 219" d="M301.557,74.684l1.191.691a.938.938,0,0,1,.437.729c0,.26-.2.361-.437.222l-1.191-.691a.938.938,0,0,1-.437-.729C301.12,74.646,301.316,74.544,301.557,74.684Z" transform="translate(-297.818 -61.254)" fill="#fff" opacity="0.6"/>
            <path id="Path_220" data-name="Path 220" d="M304.064,60.7l7.262,4.2a.925.925,0,0,1,.444.729c0,.26-.2.361-.444.222l-7.262-4.2a.938.938,0,0,1-.444-.735C303.62,60.666,303.816,60.564,304.064,60.7Z" transform="translate(-298.734 -56.133)" fill="#ba68c8"/>
            <path id="Path_221" data-name="Path 221" d="M304.064,60.7l7.262,4.2a.925.925,0,0,1,.444.729c0,.26-.2.361-.444.222l-7.262-4.2a.938.938,0,0,1-.444-.735C303.62,60.666,303.816,60.564,304.064,60.7Z" transform="translate(-298.734 -56.133)" fill="#fff" opacity="0.8"/>
            <path id="Path_222" data-name="Path 222" d="M304.064,79.972l7.262,4.2a.925.925,0,0,1,.444.729c0,.26-.2.361-.444.222l-7.262-4.2a.951.951,0,0,1-.444-.735C303.62,79.972,303.816,79.852,304.064,79.972Z" transform="translate(-298.734 -63.197)" fill="#ba68c8"/>
            <path id="Path_223" data-name="Path 223" d="M304.064,79.972l7.262,4.2a.925.925,0,0,1,.444.729c0,.26-.2.361-.444.222l-7.262-4.2a.951.951,0,0,1-.444-.735C303.62,79.972,303.816,79.852,304.064,79.972Z" transform="translate(-298.734 -63.197)" fill="#fff" opacity="0.8"/>
            <path id="Path_224" data-name="Path 224" d="M306.742,66.083l5.589,3.232a.938.938,0,0,1,.444.735c0,.26-.2.361-.444.222l-5.589-3.238a.938.938,0,0,1-.444-.729C306.273,66.039,306.47,65.944,306.742,66.083Z" transform="translate(-299.715 -58.103)" fill="#ba68c8"/>
            <path id="Path_225" data-name="Path 225" d="M306.742,66.083l5.589,3.232a.938.938,0,0,1,.444.735c0,.26-.2.361-.444.222l-5.589-3.238a.938.938,0,0,1-.444-.729C306.273,66.039,306.47,65.944,306.742,66.083Z" transform="translate(-299.715 -58.103)" fill="#fff" opacity="0.8"/>
            <path id="Path_226" data-name="Path 226" d="M306.742,69.956l5.589,3.238a.938.938,0,0,1,.444.729c0,.266-.2.361-.444.222l-5.589-3.251a.938.938,0,0,1-.444-.729C306.273,69.9,306.47,69.8,306.742,69.956Z" transform="translate(-299.715 -59.517)" fill="#ba68c8"/>
            <path id="Path_227" data-name="Path 227" d="M306.742,69.956l5.589,3.238a.938.938,0,0,1,.444.729c0,.266-.2.361-.444.222l-5.589-3.251a.938.938,0,0,1-.444-.729C306.273,69.9,306.47,69.8,306.742,69.956Z" transform="translate(-299.715 -59.517)" fill="#fff" opacity="0.8"/>
            <path id="Path_228" data-name="Path 228" d="M304.064,72.283l7.262,4.2a.938.938,0,0,1,.444.729c0,.266-.2.361-.444.222l-7.262-4.2a.938.938,0,0,1-.444-.729C303.62,72.239,303.816,72.144,304.064,72.283Z" transform="translate(-298.734 -60.374)" fill="#ba68c8"/>
            <path id="Path_229" data-name="Path 229" d="M304.064,72.283l7.262,4.2a.938.938,0,0,1,.444.729c0,.266-.2.361-.444.222l-7.262-4.2a.938.938,0,0,1-.444-.729C303.62,72.239,303.816,72.144,304.064,72.283Z" transform="translate(-298.734 -60.374)" fill="#fff" opacity="0.8"/>
            <path id="Path_230" data-name="Path 230" d="M306.742,77.654l5.589,3.238a.925.925,0,0,1,.444.729c0,.26-.2.361-.444.222L306.742,78.6a.925.925,0,0,1-.444-.729C306.273,77.616,306.47,77.514,306.742,77.654Z" transform="translate(-299.715 -62.342)" fill="#ba68c8"/>
            <path id="Path_231" data-name="Path 231" d="M306.742,77.654l5.589,3.238a.925.925,0,0,1,.444.729c0,.26-.2.361-.444.222L306.742,78.6a.925.925,0,0,1-.444-.729C306.273,77.616,306.47,77.514,306.742,77.654Z" transform="translate(-299.715 -62.342)" fill="#fff" opacity="0.8"/>
            <path id="Path_232" data-name="Path 232" d="M296.778,84.8l12.927,7.458a1.9,1.9,0,0,1,.868,1.5v29.492c0,.558-.387.779-.868.5l-12.927-7.465a1.9,1.9,0,0,1-.868-1.5V85.3C295.91,84.743,296.3,84.522,296.778,84.8Z" transform="translate(-295.91 -64.939)" fill="#37474f"/>
            <path id="Path_233" data-name="Path 233" d="M298.917,88.884l1.191.684a.957.957,0,0,1,.444.729c0,.266-.2.361-.444.222l-1.191-.684a.944.944,0,0,1-.437-.729C298.48,88.846,298.676,88.744,298.917,88.884Z" transform="translate(-296.851 -66.455)" fill="#ba68c8"/>
            <path id="Path_234" data-name="Path 234" d="M298.917,88.884l1.191.684a.957.957,0,0,1,.444.729c0,.266-.2.361-.444.222l-1.191-.684a.944.944,0,0,1-.437-.729C298.48,88.846,298.676,88.744,298.917,88.884Z" transform="translate(-296.851 -66.455)" fill="#fff" opacity="0.6"/>
            <path id="Path_235" data-name="Path 235" d="M301.557,94.263l1.191.684a.951.951,0,0,1,.437.735c0,.26-.2.361-.437.222l-1.191-.691a.944.944,0,0,1-.437-.729C301.12,94.219,301.316,94.124,301.557,94.263Z" transform="translate(-297.818 -68.425)" fill="#ba68c8"/>
            <path id="Path_236" data-name="Path 236" d="M301.557,94.263l1.191.684a.951.951,0,0,1,.437.735c0,.26-.2.361-.437.222l-1.191-.691a.944.944,0,0,1-.437-.729C301.12,94.219,301.316,94.124,301.557,94.263Z" transform="translate(-297.818 -68.425)" fill="#fff" opacity="0.6"/>
            <path id="Path_237" data-name="Path 237" d="M301.557,98.111l1.191.684a.944.944,0,0,1,.437.729c0,.266-.2.361-.437.222l-1.191-.684a.944.944,0,0,1-.437-.729C301.12,98.067,301.316,97.966,301.557,98.111Z" transform="translate(-297.818 -69.834)" fill="#ba68c8"/>
            <path id="Path_238" data-name="Path 238" d="M301.557,98.111l1.191.684a.944.944,0,0,1,.437.729c0,.266-.2.361-.437.222l-1.191-.684a.944.944,0,0,1-.437-.729C301.12,98.067,301.316,97.966,301.557,98.111Z" transform="translate(-297.818 -69.834)" fill="#fff" opacity="0.6"/>
            <path id="Path_239" data-name="Path 239" d="M298.917,100.461l1.191.684a.957.957,0,0,1,.444.729c0,.266-.2.361-.444.222l-1.191-.684a.944.944,0,0,1-.437-.729C298.48,100.417,298.676,100.316,298.917,100.461Z" transform="translate(-296.851 -70.695)" fill="#ba68c8"/>
            <path id="Path_240" data-name="Path 240" d="M298.917,100.461l1.191.684a.957.957,0,0,1,.444.729c0,.266-.2.361-.444.222l-1.191-.684a.944.944,0,0,1-.437-.729C298.48,100.417,298.676,100.316,298.917,100.461Z" transform="translate(-296.851 -70.695)" fill="#fff" opacity="0.6"/>
            <path id="Path_241" data-name="Path 241" d="M304.064,91.861l7.262,4.2a.925.925,0,0,1,.444.729c0,.26-.2.361-.444.222l-7.262-4.2a.938.938,0,0,1-.444-.729C303.62,91.817,303.816,91.716,304.064,91.861Z" transform="translate(-298.734 -67.545)" fill="#ba68c8"/>
            <path id="Path_242" data-name="Path 242" d="M304.064,91.861l7.262,4.2a.925.925,0,0,1,.444.729c0,.26-.2.361-.444.222l-7.262-4.2a.938.938,0,0,1-.444-.729C303.62,91.817,303.816,91.716,304.064,91.861Z" transform="translate(-298.734 -67.545)" fill="#fff" opacity="0.8"/>
            <path id="Path_243" data-name="Path 243" d="M306.742,97.233l5.589,3.238a.925.925,0,0,1,.444.729c0,.26-.2.361-.444.222l-5.589-3.238a.938.938,0,0,1-.444-.729C306.273,97.189,306.47,97.094,306.742,97.233Z" transform="translate(-299.715 -69.513)" fill="#ba68c8"/>
            <path id="Path_244" data-name="Path 244" d="M306.742,97.233l5.589,3.238a.925.925,0,0,1,.444.729c0,.26-.2.361-.444.222l-5.589-3.238a.938.938,0,0,1-.444-.729C306.273,97.189,306.47,97.094,306.742,97.233Z" transform="translate(-299.715 -69.513)" fill="#fff" opacity="0.8"/>
            <path id="Path_245" data-name="Path 245" d="M306.742,101.091l5.589,3.232a.938.938,0,0,1,.444.729c0,.266-.2.368-.444.228l-5.589-3.238a.938.938,0,0,1-.444-.729C306.273,101.047,306.47,100.946,306.742,101.091Z" transform="translate(-299.715 -70.926)" fill="#ba68c8"/>
            <path id="Path_246" data-name="Path 246" d="M306.742,101.091l5.589,3.232a.938.938,0,0,1,.444.729c0,.266-.2.368-.444.228l-5.589-3.238a.938.938,0,0,1-.444-.729C306.273,101.047,306.47,100.946,306.742,101.091Z" transform="translate(-299.715 -70.926)" fill="#fff" opacity="0.8"/>
            <path id="Path_247" data-name="Path 247" d="M304.064,103.433l7.262,4.2a.938.938,0,0,1,.444.729c0,.266-.2.361-.444.222l-7.262-4.176a.938.938,0,0,1-.444-.729C303.62,103.389,303.816,103.294,304.064,103.433Z" transform="translate(-298.734 -71.785)" fill="#ba68c8"/>
            <path id="Path_248" data-name="Path 248" d="M304.064,103.433l7.262,4.2a.938.938,0,0,1,.444.729c0,.266-.2.361-.444.222l-7.262-4.176a.938.938,0,0,1-.444-.729C303.62,103.389,303.816,103.294,304.064,103.433Z" transform="translate(-298.734 -71.785)" fill="#fff" opacity="0.8"/>
            <path id="Path_249" data-name="Path 249" d="M301.557,105.854l1.191.691a.944.944,0,0,1,.437.729c0,.266-.2.361-.437.222l-1.191-.684a.944.944,0,0,1-.437-.729C301.12,105.816,301.316,105.714,301.557,105.854Z" transform="translate(-297.818 -72.672)" fill="#ba68c8"/>
            <path id="Path_250" data-name="Path 250" d="M301.557,105.854l1.191.691a.944.944,0,0,1,.437.729c0,.266-.2.361-.437.222l-1.191-.684a.944.944,0,0,1-.437-.729C301.12,105.816,301.316,105.714,301.557,105.854Z" transform="translate(-297.818 -72.672)" fill="#fff" opacity="0.6"/>
            <path id="Path_251" data-name="Path 251" d="M301.557,109.7l1.191.691a.944.944,0,0,1,.437.729c0,.26-.2.361-.437.222l-1.191-.691a.938.938,0,0,1-.437-.729C301.12,109.666,301.316,109.564,301.557,109.7Z" transform="translate(-297.818 -74.082)" fill="#ba68c8"/>
            <path id="Path_252" data-name="Path 252" d="M301.557,109.7l1.191.691a.944.944,0,0,1,.437.729c0,.26-.2.361-.437.222l-1.191-.691a.938.938,0,0,1-.437-.729C301.12,109.666,301.316,109.564,301.557,109.7Z" transform="translate(-297.818 -74.082)" fill="#fff" opacity="0.6"/>
            <path id="Path_253" data-name="Path 253" d="M306.742,108.824l5.589,3.238a.938.938,0,0,1,.444.729c0,.266-.2.368-.444.222l-5.589-3.232a.938.938,0,0,1-.444-.729C306.273,108.786,306.47,108.684,306.742,108.824Z" transform="translate(-299.715 -73.76)" fill="#ba68c8"/>
            <path id="Path_254" data-name="Path 254" d="M306.742,108.824l5.589,3.238a.938.938,0,0,1,.444.729c0,.266-.2.368-.444.222l-5.589-3.232a.938.938,0,0,1-.444-.729C306.273,108.786,306.47,108.684,306.742,108.824Z" transform="translate(-299.715 -73.76)" fill="#fff" opacity="0.8"/>
            <path id="Path_255" data-name="Path 255" d="M306.742,112.684l5.589,3.238a.938.938,0,0,1,.444.729c0,.266-.2.361-.444.222l-5.589-3.238a.925.925,0,0,1-.444-.729C306.273,112.646,306.47,112.544,306.742,112.684Z" transform="translate(-299.715 -75.174)" fill="#ba68c8"/>
            <path id="Path_256" data-name="Path 256" d="M306.742,112.684l5.589,3.238a.938.938,0,0,1,.444.729c0,.266-.2.361-.444.222l-5.589-3.238a.925.925,0,0,1-.444-.729C306.273,112.646,306.47,112.544,306.742,112.684Z" transform="translate(-299.715 -75.174)" fill="#fff" opacity="0.8"/>
            <path id="Path_257" data-name="Path 257" d="M298.917,119.794l1.191.691a.944.944,0,0,1,.444.729c0,.26-.2.361-.444.222l-1.191-.691a.938.938,0,0,1-.437-.729C298.48,119.756,298.676,119.654,298.917,119.794Z" transform="translate(-296.851 -77.778)" fill="#ba68c8"/>
            <path id="Path_258" data-name="Path 258" d="M298.917,119.794l1.191.691a.944.944,0,0,1,.444.729c0,.26-.2.361-.444.222l-1.191-.691a.938.938,0,0,1-.437-.729C298.48,119.756,298.676,119.654,298.917,119.794Z" transform="translate(-296.851 -77.778)" fill="#fff" opacity="0.6"/>
            <path id="Path_259" data-name="Path 259" d="M304.064,122.764l7.262,4.2a.925.925,0,0,1,.444.729c0,.26-.2.361-.444.222l-7.262-4.2a.938.938,0,0,1-.444-.729C303.62,122.726,303.816,122.624,304.064,122.764Z" transform="translate(-298.734 -78.866)" fill="#ba68c8"/>
            <path id="Path_260" data-name="Path 260" d="M304.064,122.764l7.262,4.2a.925.925,0,0,1,.444.729c0,.26-.2.361-.444.222l-7.262-4.2a.938.938,0,0,1-.444-.729C303.62,122.726,303.816,122.624,304.064,122.764Z" transform="translate(-298.734 -78.866)" fill="#fff" opacity="0.8"/>
            <path id="Path_261" data-name="Path 261" d="M301.557,125.192l1.191.691a.938.938,0,0,1,.437.729c0,.26-.2.361-.437.222l-1.191-.691a.938.938,0,0,1-.437-.729C301.12,125.154,301.316,125.046,301.557,125.192Z" transform="translate(-297.818 -79.755)" fill="#ba68c8"/>
            <path id="Path_262" data-name="Path 262" d="M301.557,125.192l1.191.691a.938.938,0,0,1,.437.729c0,.26-.2.361-.437.222l-1.191-.691a.938.938,0,0,1-.437-.729C301.12,125.154,301.316,125.046,301.557,125.192Z" transform="translate(-297.818 -79.755)" fill="#fff" opacity="0.6"/>
            <path id="Path_263" data-name="Path 263" d="M301.557,129.042l1.191.684a.957.957,0,0,1,.437.735c0,.26-.2.361-.437.222l-1.191-.691a.944.944,0,0,1-.437-.729C301.12,128.992,301.316,128.9,301.557,129.042Z" transform="translate(-297.818 -81.165)" fill="#ba68c8"/>
            <path id="Path_264" data-name="Path 264" d="M301.557,129.042l1.191.684a.957.957,0,0,1,.437.735c0,.26-.2.361-.437.222l-1.191-.691a.944.944,0,0,1-.437-.729C301.12,128.992,301.316,128.9,301.557,129.042Z" transform="translate(-297.818 -81.165)" fill="#fff" opacity="0.6"/>
            <path id="Path_265" data-name="Path 265" d="M306.742,128.167l5.589,3.238a.925.925,0,0,1,.444.729c0,.26-.2.361-.444.222l-5.589-3.238a.925.925,0,0,1-.444-.729C306.273,128.129,306.47,128.04,306.742,128.167Z" transform="translate(-299.715 -80.847)" fill="#ba68c8"/>
            <path id="Path_266" data-name="Path 266" d="M306.742,128.167l5.589,3.238a.925.925,0,0,1,.444.729c0,.26-.2.361-.444.222l-5.589-3.238a.925.925,0,0,1-.444-.729C306.273,128.129,306.47,128.04,306.742,128.167Z" transform="translate(-299.715 -80.847)" fill="#fff" opacity="0.8"/>
            <path id="Path_267" data-name="Path 267" d="M306.742,132.024l5.589,3.238a.925.925,0,0,1,.444.729c0,.26-.2.361-.444.222l-5.589-3.238a.938.938,0,0,1-.444-.729C306.273,131.986,306.47,131.884,306.742,132.024Z" transform="translate(-299.715 -82.258)" fill="#ba68c8"/>
            <path id="Path_268" data-name="Path 268" d="M306.742,132.024l5.589,3.238a.925.925,0,0,1,.444.729c0,.26-.2.361-.444.222l-5.589-3.238a.938.938,0,0,1-.444-.729C306.273,131.986,306.47,131.884,306.742,132.024Z" transform="translate(-299.715 -82.258)" fill="#fff" opacity="0.8"/>
            <path id="Path_269" data-name="Path 269" d="M301.557,113.534l1.191.691a.938.938,0,0,1,.437.729c0,.26-.2.361-.437.222l-1.191-.691a.938.938,0,0,1-.437-.729C301.12,113.5,301.316,113.394,301.557,113.534Z" transform="translate(-297.818 -75.485)" fill="#ba68c8"/>
            <path id="Path_270" data-name="Path 270" d="M301.557,113.534l1.191.691a.938.938,0,0,1,.437.729c0,.26-.2.361-.437.222l-1.191-.691a.938.938,0,0,1-.437-.729C301.12,113.5,301.316,113.394,301.557,113.534Z" transform="translate(-297.818 -75.485)" fill="#fff" opacity="0.6"/>
            <path id="Path_271" data-name="Path 271" d="M298.917,115.884l1.191.691a.944.944,0,0,1,.444.729c0,.26-.2.361-.444.222l-1.191-.691a.938.938,0,0,1-.437-.729C298.48,115.846,298.676,115.744,298.917,115.884Z" transform="translate(-296.851 -76.346)" fill="#ba68c8"/>
            <path id="Path_272" data-name="Path 272" d="M298.917,115.884l1.191.691a.944.944,0,0,1,.444.729c0,.26-.2.361-.444.222l-1.191-.691a.938.938,0,0,1-.437-.729C298.48,115.846,298.676,115.744,298.917,115.884Z" transform="translate(-296.851 -76.346)" fill="#fff" opacity="0.6"/>
            <path id="Path_273" data-name="Path 273" d="M306.742,116.514l5.589,3.238a.925.925,0,0,1,.444.729c0,.26-.2.361-.444.222l-5.589-3.238a.925.925,0,0,1-.444-.729C306.273,116.476,306.47,116.374,306.742,116.514Z" transform="translate(-299.715 -76.577)" fill="#ba68c8"/>
            <path id="Path_274" data-name="Path 274" d="M306.742,116.514l5.589,3.238a.925.925,0,0,1,.444.729c0,.26-.2.361-.444.222l-5.589-3.238a.925.925,0,0,1-.444-.729C306.273,116.476,306.47,116.374,306.742,116.514Z" transform="translate(-299.715 -76.577)" fill="#fff" opacity="0.8"/>
            <path id="Path_275" data-name="Path 275" d="M304.064,118.854l7.262,4.2a.925.925,0,0,1,.444.729c0,.26-.2.361-.444.222l-7.262-4.2a.951.951,0,0,1-.444-.735C303.62,118.816,303.816,118.714,304.064,118.854Z" transform="translate(-298.734 -77.434)" fill="#ba68c8"/>
            <path id="Path_276" data-name="Path 276" d="M304.064,118.854l7.262,4.2a.925.925,0,0,1,.444.729c0,.26-.2.361-.444.222l-7.262-4.2a.951.951,0,0,1-.444-.735C303.62,118.816,303.816,118.714,304.064,118.854Z" transform="translate(-298.734 -77.434)" fill="#fff" opacity="0.8"/>
            <path id="Path_277" data-name="Path 277" d="M298.917,131.444l1.191.691a.944.944,0,0,1,.444.729c0,.26-.2.361-.444.222l-1.191-.678a.938.938,0,0,1-.437-.729C298.48,131.406,298.676,131.3,298.917,131.444Z" transform="translate(-296.851 -82.046)" fill="#ba68c8"/>
            <path id="Path_278" data-name="Path 278" d="M298.917,131.444l1.191.691a.944.944,0,0,1,.444.729c0,.26-.2.361-.444.222l-1.191-.678a.938.938,0,0,1-.437-.729C298.48,131.406,298.676,131.3,298.917,131.444Z" transform="translate(-296.851 -82.046)" fill="#fff" opacity="0.6"/>
            <path id="Path_279" data-name="Path 279" d="M304.064,134.422l7.262,4.2a.925.925,0,0,1,.444.729c0,.26-.2.361-.444.222l-7.262-4.17a.938.938,0,0,1-.444-.729C303.62,134.377,303.816,134.276,304.064,134.422Z" transform="translate(-298.734 -83.135)" fill="#ba68c8"/>
            <path id="Path_280" data-name="Path 280" d="M304.064,134.422l7.262,4.2a.925.925,0,0,1,.444.729c0,.26-.2.361-.444.222l-7.262-4.17a.938.938,0,0,1-.444-.729C303.62,134.377,303.816,134.276,304.064,134.422Z" transform="translate(-298.734 -83.135)" fill="#fff" opacity="0.8"/>
          </g>
        </g>
        <g id="freepik--window--inject-11-3" data-name="freepik--window--inject-11" transform="translate(203.391 73.565)">
          <g id="Group_5" data-name="Group 5" transform="translate(0 1.191)">
            <path id="Path_281" data-name="Path 281" d="M410.78,150.085v60.926a2.8,2.8,0,0,0,1.268,2.194l35,20.2a.877.877,0,0,0,.423.12h.335l.072-.048.072-.064a.973.973,0,0,0,.231-.335,1.5,1.5,0,0,0,.136-.638V171.814a2.792,2.792,0,0,0-1.268-2.194l-35-20.173a.925.925,0,0,0-.854-.112l-.1.064h0l-.088.08a.166.166,0,0,0,0,.048.207.207,0,0,0-.04.072.431.431,0,0,0-.08.16.462.462,0,0,0,0,.112h0v.12C410.788,149.982,410.78,150.037,410.78,150.085Z" transform="translate(-410.78 -149.278)" fill="#455a64"/>
          </g>
          <path id="Path_282" data-name="Path 282" d="M411.3,148.946a.925.925,0,0,1,.854.112l35,20.173a2.792,2.792,0,0,1,1.268,2.194v4.132l2.018-1.165v-4.1a2.776,2.776,0,0,0-1.268-2.186l-35-20.149a.886.886,0,0,0-.917-.08C413.023,147.956,411.571,148.81,411.3,148.946Z" transform="translate(-410.885 -147.785)" fill="#00add9"/>
          <path id="Path_283" data-name="Path 283" d="M410.79,150.054c0-.8.566-1.117,1.26-.718l35,20.173a2.8,2.8,0,0,1,1.268,2.194v4.132L410.83,154.21Z" transform="translate(-410.782 -148.064)" fill="#00add9"/>
          <g id="Group_6" data-name="Group 6" transform="translate(0.423)" opacity="0.5">
            <path id="Path_284" data-name="Path 284" d="M412.156,149.057l35,20.173a2.609,2.609,0,0,1,.893.941l2.01-1.157a2.576,2.576,0,0,0-.885-.917l-35-20.141a.886.886,0,0,0-.917-.08c-.223.144-1.683.957-1.946,1.1a.885.885,0,0,1,.846.08Z" transform="translate(-411.31 -147.785)" fill="#fff"/>
          </g>
          <path id="Path_285" data-name="Path 285" d="M459.761,179.786v-4.108a2.68,2.68,0,0,0-.383-1.268l-2.018,1.149a2.521,2.521,0,0,1,.383,1.26v4.132Z" transform="translate(-420.204 -153.172)" opacity="0.15"/>
          <path id="Path_286" data-name="Path 286" d="M455.348,176.781a1.89,1.89,0,0,1,.718,1.516c0,.606-.319.917-.718.686a1.882,1.882,0,0,1-.718-1.508C454.63,176.861,454.925,176.558,455.348,176.781Z" transform="translate(-419.652 -153.637)" fill="#455a64"/>
          <path id="Path_287" data-name="Path 287" d="M452.12,174.92a1.859,1.859,0,0,1,.718,1.508c0,.614-.319.917-.718.694a1.906,1.906,0,0,1-.71-1.516C451.41,174.967,451.729,174.688,452.12,174.92Z" transform="translate(-419.001 -153.258)" fill="#455a64"/>
          <path id="Path_288" data-name="Path 288" d="M448.9,173.051a1.906,1.906,0,0,1,.734,1.54c0,.606-.319.917-.71.686a1.875,1.875,0,0,1-.718-1.516C448.186,173.131,448.5,172.828,448.9,173.051Z" transform="translate(-418.353 -152.882)" fill="#455a64"/>
          <g id="Group_7" data-name="Group 7" transform="translate(37.076 26.607)" opacity="0.9">
            <path id="Path_289" data-name="Path 289" d="M457.26,239.849l.152-.088.391-.223h0a1.391,1.391,0,0,1,.207-.12h0l.335-.191.678-.383.16-.088a.717.717,0,0,0,.215-.168.878.878,0,0,0,.167-.263,1.507,1.507,0,0,0,.152-.67V181.14L457.7,182.3v56.483a1.843,1.843,0,0,1-.136.638.974.974,0,0,1-.231.335.191.191,0,0,1-.072.064Z" transform="translate(-457.26 -181.14)" fill="#37474f"/>
          </g>
        </g>
        <g id="freepik--Mouse--inject-11" transform="translate(142.094 142.554)">
          <path id="Path_329" data-name="Path 329" d="M335.678,248.4l7.514,4.339a8.28,8.28,0,0,0,8.3-.439l12.4-9.054c2.21-1.6,2.082-3.988-.287-5.4l-3.765-2.186a10.234,10.234,0,0,0-8.719-.263l-15.307,8.288C333.365,244.919,333.3,247.025,335.678,248.4Z" transform="translate(-333.935 -234.328)" opacity="0.15"/>
          <path id="Path_330" data-name="Path 330" d="M364.4,239.248l-8.567,6.708L349.5,250.91a5.584,5.584,0,0,1-2.018.487,5.488,5.488,0,0,1-3.007-.63l-6.724-3.885h-.04a4.786,4.786,0,0,1-1.364-6.8l.2-.279a8.966,8.966,0,0,1,5.416-3.43l3.406-.678c5.52-1.125,10.043-1.667,10.569-1.308l8.431,4.882Z" transform="translate(-334.247 -234.272)" fill="#37474f"/>
          <path id="Path_331" data-name="Path 331" d="M362.4,243.257l.487-.383-7.57-4.363,6.621-2.05-.67-.391-6.621,2.05-4.515-2.6-.854.16Z" transform="translate(-337.04 -234.525)" fill="#f5f5f5"/>
          <path id="Path_332" data-name="Path 332" d="M353.288,251.759h0l6.03-4.355,8.128-5.871v-.957a.08.08,0,0,0-.04-.072h-.048c-.606-.207-4.132.854-8.392,2.545l-2.824,1.125a8.942,8.942,0,0,0-5.664,8.352v.144a5.583,5.583,0,0,0,2.018-.487Z" transform="translate(-337.283 -235.528)" fill="#263238"/>
        </g>
      </g>
    </g>
    <g id="freepik--Plant--inject-11" transform="translate(299.959 231.139)">
      <g id="freepik--Pot--inject-11">
        <path id="Path_333" data-name="Path 333" d="M370.367,392.808c-8.28-8.543-13.138-43.306-5.065-50.078h41.08c8.072,6.772,3.191,41.527-5.057,50.07l-.231.239c-.088.1-.183.191-.279.279-.239.231-.487.455-.75.67l-.2.16c-.2.16-.4.319-.622.479a12.167,12.167,0,0,1-1.069.694c-6.812,3.988-17.852,3.988-24.664,0h0c-.359-.207-.718-.447-1.077-.7-.207-.144-.391-.3-.582-.447l-.239-.191a9.689,9.689,0,0,1-.726-.646c-.112-.1-.223-.215-.327-.327a2.258,2.258,0,0,1-.191-.2Z" transform="translate(-356.272 -296.258)" fill="#00add9"/>
        <g id="Group_8" data-name="Group 8" transform="translate(4.895 46.472)" opacity="0.5">
          <path id="Path_334" data-name="Path 334" d="M370.367,392.808c-8.28-8.543-13.138-43.306-5.065-50.078h41.08c8.072,6.772,3.191,41.527-5.057,50.07l-.231.239c-.088.1-.183.191-.279.279-.239.231-.487.455-.75.67l-.2.16c-.2.16-.4.319-.622.479a12.167,12.167,0,0,1-1.069.694c-6.812,3.988-17.852,3.988-24.664,0h0c-.359-.207-.718-.447-1.077-.7-.207-.144-.391-.3-.582-.447l-.239-.191a9.689,9.689,0,0,1-.726-.646c-.112-.1-.223-.215-.327-.327a2.258,2.258,0,0,1-.191-.2Z" transform="translate(-361.167 -342.73)" fill="#fff"/>
        </g>
        <path id="Path_335" data-name="Path 335" d="M402.986,338.27c9.373,5.472,9.373,14.358,0,19.822s-24.576,5.472-33.949,0-9.373-14.358,0-19.822S393.613,332.8,402.986,338.27Z" transform="translate(-356.442 -294.526)" fill="#00add9"/>
        <g id="Group_9" data-name="Group 9" transform="translate(5.565 39.643)" opacity="0.7">
          <path id="Path_336" data-name="Path 336" d="M402.986,338.27c9.373,5.472,9.373,14.358,0,19.822s-24.576,5.472-33.949,0-9.373-14.358,0-19.822S393.613,332.8,402.986,338.27Z" transform="translate(-362.008 -334.169)" fill="#fff"/>
        </g>
        <path id="Path_337" data-name="Path 337" d="M400.1,341.845c6.884,3.988,6.884,10.537,0,14.558s-18.051,3.988-24.935,0-6.884-10.537,0-14.558S393.212,337.825,400.1,341.845Z" transform="translate(-358.059 -295.469)" fill="#ba68c8"/>
        <g id="Group_10" data-name="Group 10" transform="translate(11.939 43.361)" opacity="0.3">
          <path id="Path_338" data-name="Path 338" d="M400.1,341.845c6.884,3.988,6.884,10.537,0,14.558s-18.051,3.988-24.935,0-6.884-10.537,0-14.558S393.212,337.825,400.1,341.845Z" transform="translate(-369.997 -338.83)"/>
        </g>
        <path id="Path_339" data-name="Path 339" d="M375.424,350.511c6.884-3.988,18.051-3.988,24.935,0a11.454,11.454,0,0,1,4.116,3.821,11.471,11.471,0,0,1-4.116,3.829c-6.884,3.988-18.051,3.988-24.935,0a11.566,11.566,0,0,1-4.124-3.829,11.549,11.549,0,0,1,4.124-3.821Z" transform="translate(-358.322 -297.227)" fill="#f5f5f5"/>
        <g id="freepik--Plants--inject-11">
          <path id="Path_340" data-name="Path 340" d="M387.578,320.214a11.512,11.512,0,0,1-1.045-3c-.463-2.5.16-5.368,2.186-6.916.8-.606,1.859-1.061,2.2-2.018a3.3,3.3,0,0,0,0-1.651c-.375-2.138-1.093-4.339-.5-6.421a7.179,7.179,0,0,1,3.988-4.276,21.538,21.538,0,0,1,5.8-1.516,9.389,9.389,0,0,0,3.071-.877c1.149-.646,1.508-1.779,2.217-2.776a19.383,19.383,0,0,1,2.824-3.007c2.09-1.867,4.706-3.406,7.6-3.278,6.046.263,5.871,5.464,4.132,9.4s-2.2,5.225,1.6,9.333,3.781,9.173-.726,11.965-7.434,3.191-5.647,8.663c1.6,4.874,2.576,9.03-1.922,14.238-2.911,3.366-6.892,5.767-11.869,5.584a20.038,20.038,0,0,1-5.831-1.34c-1.372-.678-.447-1.739-.909-3.095l-2.983-8.711a64.677,64.677,0,0,0-2.393-6.876C388.815,322.447,388.145,321.355,387.578,320.214Z" transform="translate(-361.375 -284.471)" fill="#00add9"/>
          <g id="Group_11" data-name="Group 11" transform="translate(25.013)" opacity="0.25">
            <path id="Path_341" data-name="Path 341" d="M387.578,320.214a11.512,11.512,0,0,1-1.045-3c-.463-2.5.16-5.368,2.186-6.916.8-.606,1.859-1.061,2.2-2.018a3.3,3.3,0,0,0,0-1.651c-.375-2.138-1.093-4.339-.5-6.421a7.179,7.179,0,0,1,3.988-4.276,21.538,21.538,0,0,1,5.8-1.516,9.389,9.389,0,0,0,3.071-.877c1.149-.646,1.508-1.779,2.217-2.776a19.383,19.383,0,0,1,2.824-3.007c2.09-1.867,4.706-3.406,7.6-3.278,6.046.263,5.871,5.464,4.132,9.4s-2.2,5.225,1.6,9.333,3.781,9.173-.726,11.965-7.434,3.191-5.647,8.663c1.6,4.874,2.576,9.03-1.922,14.238-2.911,3.366-6.892,5.767-11.869,5.584a20.038,20.038,0,0,1-5.831-1.34c-1.372-.678-.447-1.739-.909-3.095l-2.983-8.711a64.677,64.677,0,0,0-2.393-6.876C388.815,322.447,388.145,321.355,387.578,320.214Z" transform="translate(-386.388 -284.471)"/>
          </g>
          <path id="Path_342" data-name="Path 342" d="M398.034,344.558a.423.423,0,0,0,.3-.423c-.255-29.849,16.2-47.669,16.368-47.86a.463.463,0,0,0,0-.638.447.447,0,0,0-.63,0c-.168.175-16.863,18.243-16.608,48.467a.439.439,0,0,0,.447.447Z" transform="translate(-363.615 -286.704)" fill="#fff"/>
          <path id="Path_343" data-name="Path 343" d="M404.031,320.436l.1-.04c5.352-3.374,14.9-5.887,15-5.911a.455.455,0,0,0,.319-.55.439.439,0,0,0-.542-.319c-.4.1-9.779,2.569-15.243,6.014a.448.448,0,0,0,.375.806Z" transform="translate(-364.826 -290.364)" fill="#fff"/>
          <path id="Path_344" data-name="Path 344" d="M404.872,314.7h0a.455.455,0,0,0,.247-.59,34.723,34.723,0,0,0-4.938-8.3.439.439,0,0,0-.63-.048.455.455,0,0,0-.048.63,34.21,34.21,0,0,1,4.786,8.064.439.439,0,0,0,.582.247Z" transform="translate(-364.008 -288.756)" fill="#fff"/>
          <path id="Path_345" data-name="Path 345" d="M385.254,349.85a25.087,25.087,0,0,1-13.106.479c-7.514-1.6-12.117-8.647-12.117-8.647s8.136-3.254,12.874-3.574a41.973,41.973,0,0,0-14.238.3s-4.355-1.6-3.534-8.966c0,0,4.1-3.023,13.56-1.835,0,0-4.722-3.374-13.01-4.371-.654,0,.231-9.572,1.021-13.84s2.393-3.605,5.743-3.239,13.409,2.648,14.677,5.105.04,8.727.04,8.727a14.358,14.358,0,0,0,2.76-8.2,21.809,21.809,0,0,1,5.791,3.191,13.417,13.417,0,0,1,3.605,4.515c-.471,3.358-2.05,8.487-4.268,11.351a15.346,15.346,0,0,0,6.134-9.165,20.74,20.74,0,0,1,3.988,11.686C395.065,340.876,391.7,346.451,385.254,349.85Z" transform="translate(-355.031 -288.804)" fill="#00add9"/>
          <path id="Path_346" data-name="Path 346" d="M385.254,349.85a25.087,25.087,0,0,1-13.106.479c-7.514-1.6-12.117-8.647-12.117-8.647s8.136-3.254,12.874-3.574a41.973,41.973,0,0,0-14.238.3s-4.355-1.6-3.534-8.966c0,0,4.1-3.023,13.56-1.835,0,0-4.722-3.374-13.01-4.371-.654,0,.231-9.572,1.021-13.84s2.393-3.605,5.743-3.239,13.409,2.648,14.677,5.105.04,8.727.04,8.727a14.358,14.358,0,0,0,2.76-8.2,21.809,21.809,0,0,1,5.791,3.191,13.417,13.417,0,0,1,3.605,4.515c-.471,3.358-2.05,8.487-4.268,11.351a15.346,15.346,0,0,0,6.134-9.165,20.74,20.74,0,0,1,3.988,11.686C395.065,340.876,391.7,346.451,385.254,349.85Z" transform="translate(-355.031 -288.804)" opacity="0.1"/>
          <path id="Path_347" data-name="Path 347" d="M387.933,349.506a.415.415,0,0,1-.271-.367c-1.141-14.246-17.078-36.494-24.122-40.96a.447.447,0,0,1-.136-.6.439.439,0,0,1,.59-.136c7.179,4.539,23.364,27.121,24.513,41.623a.423.423,0,0,1-.391.463.359.359,0,0,1-.183-.024Z" transform="translate(-356.712 -289.106)" fill="#fff"/>
        </g>
      </g>
    </g>
    <g id="freepik--Character--inject-11" transform="translate(62.839 107.39)">
      <g id="freepik--character--inject-11-2" data-name="freepik--character--inject-11" transform="translate(0 0)">
        <path id="Path_348" data-name="Path 348" d="M212.841,345.852c0-.16-2.561-9.413-2.561-9.413s.838.854,6.182-.558a30.313,30.313,0,0,0,5.815-2.441L223.8,340.2c1.428,2.6,6.15,1.4,11.319.8.869-.1,1.763-.247,2.656-.4h.056c2.792-.152,5.584,1.524,2.7,3.909s-7.7,3.278-12.109,4.076C223.107,349.585,213.79,351.14,212.841,345.852Z" transform="translate(-108.623 -160.63)" fill="#ffa8a7"/>
        <path id="Path_349" data-name="Path 349" d="M250.422,348a5.416,5.416,0,0,1,.383,2.84c-.1,1.029-2.648,4.523-7.179,6.669s-10.067,2.281-12.667,3.031-4.993,2.241-8.064,2.991-6.11,1.149-9.189-.885a6.911,6.911,0,0,1-1.013-3.087C213.251,359.032,250.422,348,250.422,348Z" transform="translate(-109.105 -163.576)" fill="#263238"/>
        <path id="Path_350" data-name="Path 350" d="M224.9,342.73c1.978,1.364,6.078.415,10.505-.088,4.18-.479,8.878-1.946,11.718-.957s5.209,4.323,1.372,8.607c-1.109,1.236-3.454,3.414-5.336,4.092-4.786,1.707-9.046,1.843-12.109,2.6-3.988.981-6.174,2.752-9.859,3.191-4.786.558-7.8-.67-8.631-1.946s-1.6-11.558.455-11.343c0,0,.861,3.326,8.671.1C225.094,345.554,225.039,343.464,224.9,342.73Z" transform="translate(-108.912 -162.23)" fill="#00add9"/>
        <path id="Path_351" data-name="Path 351" d="M224.9,342.73c1.978,1.364,6.078.415,10.505-.088,4.18-.479,8.878-1.946,11.718-.957s5.209,4.323,1.372,8.607c-1.109,1.236-3.454,3.414-5.336,4.092-4.786,1.707-9.046,1.843-12.109,2.6-3.988.981-6.174,2.752-9.859,3.191-4.786.558-7.8-.67-8.631-1.946s-1.6-11.558.455-11.343c0,0,.861,3.326,8.671.1C225.094,345.554,225.039,343.464,224.9,342.73Z" transform="translate(-108.912 -162.23)" opacity="0.4"/>
        <path id="Path_352" data-name="Path 352" d="M243.474,348.569s-.447-4.339-3.653-5.488a1.683,1.683,0,0,0-1.771.231s2.975.431,3.988,5.528c0,0,.152.335.8.215C243.027,349.008,243.506,348.92,243.474,348.569Z" transform="translate(-114.242 -162.55)" fill="#fafafa"/>
        <path id="Path_353" data-name="Path 353" d="M234.62,343.74s0-.144.75-.279a1.34,1.34,0,0,1,.885.1s2.393,1.037,2.84,5.584c0,0,0,.542-.742.694a.654.654,0,0,1-.854-.447S237.005,344.61,234.62,343.74Z" transform="translate(-113.548 -162.65)" fill="#fafafa"/>
        <path id="Path_354" data-name="Path 354" d="M231.4,343.871s.136-.271.694-.271c.71,0,.877.279.877.279s1.707,1.747,1.723,5.544c0,0,.072.638-.8.7s-.8-.654-.8-.654S232.8,344.637,231.4,343.871Z" transform="translate(-112.897 -162.686)" fill="#fafafa"/>
        <path id="Path_355" data-name="Path 355" d="M204.978,270.2c3.909,11.75,14.278,52.208,14.278,52.208s-6.748,6.062-14.071,3.3L187.74,275.329Z" transform="translate(-104.063 -147.835)" fill="#37474f"/>
        <path id="Path_356" data-name="Path 356" d="M246.177,362.223c-.8-1.189-3.8-9.413-3.8-9.413s3.127,1.787,8.511.511c2.736-.654,5.3-3.621,5.3-3.621l2.3,7.9c1.356,2.64,5.751,1.771,10.936,1.308.869-.08,1.763-.207,2.664-.335h.056c2.792-.08,5.584,1.659,2.592,3.988s-7.769,3.095-12.2,3.781C257.233,367.153,249.168,366.69,246.177,362.223Z" transform="translate(-115.118 -163.92)" fill="#ffa8a7"/>
        <path id="Path_357" data-name="Path 357" d="M287.209,365.09a5.831,5.831,0,0,1,.343,3.063c-.136,1.1-2.967,4.786-7.849,6.964s-10.872,2.186-13.688,2.919-5.416,2.281-8.735,3.007-6.589,1.061-9.835-1.189c-.59-.957-1.212-3.143-1.005-3.35C246.974,375.954,287.209,365.09,287.209,365.09Z" transform="translate(-115.931 -167.034)" fill="#263238"/>
        <path id="Path_358" data-name="Path 358" d="M259.916,358.647a8.327,8.327,0,0,0,.981.606,2.928,2.928,0,0,0,1.085.223,15.077,15.077,0,0,0,2.616.064c2.186-.1,4.363-.439,6.549-.63,4.491-.4,9.572-1.851,12.6-.718s5.783,4.786,1.548,9.261a20.739,20.739,0,0,1-5.663,4.3c-5.017,2.1-10.226,1.707-13.56,2.441-4.307.949-6.7,2.792-10.673,3.151-5.145.471-8.352-.925-9.205-2.321-.479-.8.048-4.786-.59-7.937-.558-2.7-.415-4.531.558-4.411a4.785,4.785,0,0,0,.75.957,3.6,3.6,0,0,0,1.141.9,9,9,0,0,0,1.93.646,11.4,11.4,0,0,0,3.582.494,1.739,1.739,0,0,0,.973-.311,2.05,2.05,0,0,0,.566-1.212c.08-.4.168-.8.247-1.2a1.675,1.675,0,0,1,.223-.614,1.6,1.6,0,0,1,.606-.487,5.233,5.233,0,0,0,1.962-1.492,4.611,4.611,0,0,0,.574-1.851.454.454,0,0,1,.128-.3c.144-.112.359,0,.518.088Z" transform="translate(-115.703 -165.552)" fill="#00add9"/>
        <path id="Path_359" data-name="Path 359" d="M259.916,358.647a8.327,8.327,0,0,0,.981.606,2.928,2.928,0,0,0,1.085.223,15.077,15.077,0,0,0,2.616.064c2.186-.1,4.363-.439,6.549-.63,4.491-.4,9.572-1.851,12.6-.718s5.783,4.786,1.548,9.261a20.739,20.739,0,0,1-5.663,4.3c-5.017,2.1-10.226,1.707-13.56,2.441-4.307.949-6.7,2.792-10.673,3.151-5.145.471-8.352-.925-9.205-2.321-.479-.8.048-4.786-.59-7.937-.558-2.7-.415-4.531.558-4.411a4.785,4.785,0,0,0,.75.957,3.6,3.6,0,0,0,1.141.9,9,9,0,0,0,1.93.646,11.4,11.4,0,0,0,3.582.494,1.739,1.739,0,0,0,.973-.311,2.05,2.05,0,0,0,.566-1.212c.08-.4.168-.8.247-1.2a1.675,1.675,0,0,1,.223-.614,1.6,1.6,0,0,1,.606-.487,5.233,5.233,0,0,0,1.962-1.492,4.611,4.611,0,0,0,.574-1.851.454.454,0,0,1,.128-.3c.144-.112.359,0,.518.088Z" transform="translate(-115.703 -165.552)" opacity="0.4"/>
        <path id="Path_360" data-name="Path 360" d="M279.757,365.264s-.367-4.674-3.781-5.991a1.819,1.819,0,0,0-1.906.2s3.191.542,4.1,6.038c0,0,.16.367.861.255C279.263,365.735,279.781,365.655,279.757,365.264Z" transform="translate(-121.53 -165.82)" fill="#fafafa"/>
        <path id="Path_361" data-name="Path 361" d="M270.38,359.86s0-.16.8-.287a1.42,1.42,0,0,1,.941.128s2.545,1.173,2.9,6.062c0,0,0,.582-.8.726a.71.71,0,0,1-.909-.5S272.925,360.849,270.38,359.86Z" transform="translate(-120.783 -165.911)" fill="#fafafa"/>
        <path id="Path_362" data-name="Path 362" d="M266.92,359.931s.152-.287.758-.271c.758,0,.925.319.925.319s1.787,1.922,1.707,5.991c0,0,.064.694-.9.742s-.8-.726-.8-.726S268.4,360.769,266.92,359.931Z" transform="translate(-120.083 -165.935)" fill="#fafafa"/>
        <path id="Path_363" data-name="Path 363" d="M238.707,287.266c3.079,9.468,10.944,36.422,14.534,50.253,0,0-6.453,5.807-14.757,5.3l-20.014-51.9,7.977-4.93Z" transform="translate(-110.28 -151.03)" fill="#455a64"/>
        <path id="Path_364" data-name="Path 364" d="M160.9,428.185a1.3,1.3,0,0,0,1.3-1.3v-83.4a1.3,1.3,0,0,0-2.6,0v83.429a1.3,1.3,0,0,0,1.3,1.276Z" transform="translate(-98.369 -162.398)" fill="#455a64"/>
        <path id="Path_365" data-name="Path 365" d="M96.189,394.9a1.292,1.292,0,0,0,1.2-.8l25.581-64.755a1.292,1.292,0,1,0-2.393-.949L94.977,393.087a1.3,1.3,0,0,0,.726,1.683,1.284,1.284,0,0,0,.487.128Z" transform="translate(-85.276 -159.423)" fill="#455a64"/>
        <path id="Path_366" data-name="Path 366" d="M100.041,388.521a1.284,1.284,0,0,0,.941-.407l47.605-50.373L196.1,387.9a1.3,1.3,0,0,0,1.883-1.787l-48.459-51.155a1.308,1.308,0,0,0-.941-.407h0a1.3,1.3,0,0,0-.941.407L99.1,386.327a1.3,1.3,0,0,0,.941,2.194Z" transform="translate(-86.057 -160.855)" fill="#455a64"/>
        <path id="Path_367" data-name="Path 367" d="M219.106,394.873a1.284,1.284,0,0,0,.479-.1,1.3,1.3,0,0,0,.726-1.683L194.73,328.347a1.3,1.3,0,1,0-2.393.949l25.589,64.755a1.292,1.292,0,0,0,1.181.822Z" transform="translate(-104.958 -159.398)" fill="#455a64"/>
        <path id="Path_368" data-name="Path 368" d="M200.185,300.372c.933-5.233-3.326-9.317-11.351-14.733A190.2,190.2,0,0,0,165.6,272.581c-6.716-3.079-13.56-2.792-22.167,1.6-11.965,6.134-47.86,27.919-47.86,27.919s53.7,30.312,64.029,28.956,36.151-18.155,38.2-24.066S200.185,300.372,200.185,300.372Z" transform="translate(-85.414 -147.902)" fill="#00add9"/>
        <g id="Group_12" data-name="Group 12" transform="translate(10.156 122.632)" opacity="0.4">
          <path id="Path_369" data-name="Path 369" d="M200.185,300.372c.933-5.233-3.326-9.317-11.351-14.733A190.2,190.2,0,0,0,165.6,272.581c-6.716-3.079-13.56-2.792-22.167,1.6-11.965,6.134-47.86,27.919-47.86,27.919s53.7,30.312,64.029,28.956,36.151-18.155,38.2-24.066S200.185,300.372,200.185,300.372Z" transform="translate(-95.57 -270.534)"/>
        </g>
        <path id="Path_370" data-name="Path 370" d="M169.35,332.261c7.706,6.98,15.762.973,28.509-7.3,14.43-9.357,17.254-17.022,17.254-17.022s0,5.743-1.077,8.431-3.406,5.743-13.808,12.914-17.94,10.761-24.935,12.093l-5.52-.758" transform="translate(-100.342 -155.471)" fill="#00add9"/>
        <path id="Path_371" data-name="Path 371" d="M197.859,324.962c14.43-9.357,17.254-17.022,17.254-17.022s0,5.743-1.077,8.431-3.406,5.743-13.808,12.914-17.94,10.761-24.935,12.093l-5.52-.758-.423-8.36C177.048,339.241,185.112,333.234,197.859,324.962Z" transform="translate(-100.342 -155.471)" opacity="0.5"/>
        <path id="Path_372" data-name="Path 372" d="M97.975,399.22l-3.988,9.109a1.268,1.268,0,0,0-.048.239,1.068,1.068,0,0,0,0,.168,1.125,1.125,0,0,0,.5.606,2.393,2.393,0,0,0,2.138.1.941.941,0,0,0,.439-.423h0v-.12l3.669-8.543Z" transform="translate(-85.084 -173.939)" fill="#00add9"/>
        <path id="Path_373" data-name="Path 373" d="M223.044,399.7l3.406,8.926a1.078,1.078,0,0,1,0,.231v.16a1.045,1.045,0,0,1-.511.558,2.233,2.233,0,0,1-2.058,0,.917.917,0,0,1-.407-.415h0v-.128l-3.135-8.368Z" transform="translate(-110.659 -174.036)" fill="#00add9"/>
        <path id="Path_374" data-name="Path 374" d="M159.35,440.206v7.386a.8.8,0,0,0,.439.606,2.313,2.313,0,0,0,2.122,0,.742.742,0,0,0,.431-.606v-7.386A3.191,3.191,0,0,0,159.35,440.206Z" transform="translate(-98.319 -182.156)" fill="#00add9"/>
        <path id="Path_375" data-name="Path 375" d="M122.54,266.815c3.055,3.566,30.886-4.443,38.288-5.448,11.885-1.6,21.537-2.8,25.605-1.532s5.751,3.326,6.988,8.16c1.46,5.7,2.21,8.607,2.21,8.607s-19.75,7.578-35.337,9.4S122.54,266.815,122.54,266.815Z" transform="translate(-90.871 -145.63)" fill="#37474f"/>
        <path id="Path_376" data-name="Path 376" d="M115.185,274.246c-3.087,11.758-5.855,25.43,1.284,32.912,4.786,5.041,28.963,18.139,44.55,12.978,15.347-5.081,47.142-28.716,50.333-31.053s6.086-3.988,5.783-5.009c-4.283-14.23-10.553-15.347-22.167-12.763-14.215,3.127-45.4,15.85-45.4,15.85Z" transform="translate(-88.733 -147.837)" fill="#455a64"/>
        <path id="Path_377" data-name="Path 377" d="M197.41,177.263l-10.721,12.117-17.309-8.216,12.1-16.743Z" transform="translate(-100.348 -126.433)" fill="#ffa8a7"/>
        <path id="Path_378" data-name="Path 378" d="M221.19,151.66s4.387,6.334,3.917,6.98-3.574,1.284-3.574,1.284Z" transform="translate(-110.831 -123.851)" fill="#f28f8f"/>
        <path id="Path_379" data-name="Path 379" d="M219.819,154.247A5.249,5.249,0,1,1,225.067,149a5.249,5.249,0,0,1-5.249,5.249Zm0-9.532a4.268,4.268,0,1,1,0,.032Z" transform="translate(-109.491 -122.251)" fill="#263238"/>
        <path id="Path_380" data-name="Path 380" d="M199.29,129.509c8.623,1.6,11.167,5.328,12.308,18.945,1.165,14.223-.183,18.737-2.01,20.692-1.236,1.324-8.248,1.723-11.814.8-4.459-1.125-14.558-4.443-19.407-11.5-5.711-8.3-7.426-19.695-1.6-24.512C184.908,127.172,195.781,128.855,199.29,129.509Z" transform="translate(-101.112 -119.233)" fill="#ffa8a7"/>
        <path id="Path_381" data-name="Path 381" d="M204.283,179.662c3.709.8,9.357.327,11.032-.63a12.763,12.763,0,0,1-6.246-.231,20.428,20.428,0,0,1-5.719-2.521Z" transform="translate(-107.221 -128.832)" fill="#f28f8f"/>
        <path id="Path_382" data-name="Path 382" d="M211.341,132.649h0a19.635,19.635,0,0,1-8.232,2.8,17.023,17.023,0,0,1-1.22,6.8c-.495,1.524-2.289,6.318-4.244,3.685-1.412-1.9-2.688-3.629-5.392-3.191-4.451.8-4.922,6.469-2.026,9.867s5.488,2.01,5.488,2.01.407,6.134-2.832,10.473a14.581,14.581,0,0,1-11.606.734c-4.276-1.412-10.45-6.8-12.723-11.016-6.262-11.582-6.294-22.686,1.3-26.1.7-5.584,5-8.136,9.939-9.389,6.852-1.739,13.967,2.561,20.588-.279,1.4-.6,2.68-1.444,4.108-1.962a2.84,2.84,0,0,1,2.465,0,3,3,0,0,1,1.053,1.883,5.281,5.281,0,0,1-.263,3.988,11.965,11.965,0,0,1,3.119-1.149,3.909,3.909,0,0,1,3.143.71,4.044,4.044,0,0,1,1.26,2.744C215.513,128.182,213.734,130.982,211.341,132.649Z" transform="translate(-99.259 -116.797)" fill="#263238"/>
        <path id="Path_383" data-name="Path 383" d="M169.871,132.964l-5.2-2.911a2.983,2.983,0,1,1,5.2,2.911Z" transform="translate(-99.395 -119.146)" fill="#263238"/>
        <rect id="Rectangle_24" data-name="Rectangle 24" width="16.959" height="0.822" transform="matrix(0.983, -0.183, 0.183, 0.983, 98.284, 28.755)" fill="#263238"/>
        <path id="Path_384" data-name="Path 384" d="M241.559,188.33c-.447-.75-1.444-.9-2.273-1.189-1.532-.534-2.728-1.755-4.2-2.393a8.3,8.3,0,0,0-5.312-.359,13.466,13.466,0,0,0-1.771.566,22.287,22.287,0,0,0-3.191,1.6c-4.228,2.5-7.4,8.152-11.558,10.745-1.547.965-2.991,1.843-4.419,2.72l9.947,8.814a59.4,59.4,0,0,1,4.9-3.725c2.441-1.452,4.906-1.484,7.65-1.883a37.953,37.953,0,0,0,5.584-1.4,2.465,2.465,0,0,0,1.651-1.077,1.659,1.659,0,0,0-1.069-2.042,14.358,14.358,0,0,0-2.9-.4c-.718-.112-2.632.311-3.055-.407-.223-.383.056-.846.327-1.189,1.723-2.146,3.9-4.443,6.653-5.089a5.775,5.775,0,0,0,2.393-.965A1.906,1.906,0,0,0,241.559,188.33Z" transform="translate(-108.33 -130.417)" fill="#ffa8a7"/>
        <path id="Path_385" data-name="Path 385" d="M167.025,176.286c-10.537-5.751-20.133-2.058-23.587,5.336-3.135,6.692-9.708,32.585-9.708,32.585C136.889,220.158,167.025,176.286,167.025,176.286Z" transform="translate(-93.135 -128.263)" fill="#00add9"/>
        <path id="Path_386" data-name="Path 386" d="M161.878,178.591l1.6-2.082c-11.9-5.648-22.55,1.771-31.907,16.368-10.114,15.73-15.419,38.288-15.467,62.147,0,0,2.018,10.713,15.547,16.065,14.358,5.687,34.388,3.278,40.633-11.606,0,0,.128-14.861,4.642-22.183,2.927-4.738,9.748-15.259,14.821-22.813,4.419-6.573,7.857-21.537-1.372-27a78.369,78.369,0,0,0-7.506-3.829C174.426,186.432,160.794,181.926,161.878,178.591Z" transform="translate(-89.568 -128.495)" fill="#00add9"/>
        <path id="Path_387" data-name="Path 387" d="M161.906,178.647l1.547-2.138c-11.9-5.648-22.55,1.771-31.907,16.368-10.114,15.73-15.419,38.288-15.467,62.147,0,0,2.018,10.713,15.547,16.065,14.358,5.687,34.388,3.278,40.633-11.606,0,0,.128-14.861,4.642-22.183,2.927-4.738,9.748-15.259,14.821-22.813,4.419-6.573,7.857-21.537-1.372-27a78.365,78.365,0,0,0-7.506-3.829C174.422,186.432,160.821,181.981,161.906,178.647Z" transform="translate(-89.564 -128.495)" fill="#fff" opacity="0.75"/>
        <path id="Path_388" data-name="Path 388" d="M195.554,210.453a24.09,24.09,0,0,0,.367-8.663h0a46.265,46.265,0,0,1-8.982,13.728c-4.842,5.1-10.816,9.07-15.307,14.478-4.786,5.727-8.176,12.659-12.165,18.913-1.6,2.513-3.781,7.355-6.748,7.554-3.621.231-7.083-4.18-9.054-7.227-3.191-4.85-5.855-10.92-9.771-15.156-3.422-3.725-8.719-8.5-13.377-6.334h0c-.351,1.236-.678,2.489-.989,3.749s-.6,2.568-.869,3.853v.152c-.263,1.292-.511,2.592-.742,3.893a1.6,1.6,0,0,1,0,.207q-.335,1.938-.6,3.877a125.747,125.747,0,0,0-1.189,17.078s2.018,10.713,15.547,16.065c14.358,5.687,34.388,3.278,40.633-11.606,0,0,.128-14.861,4.642-22.183.455-.734,1.013-1.6,1.6-2.608h0l.1-.168c.518-.8,1.077-1.7,1.683-2.64,0-.056.072-.112.112-.168a.327.327,0,0,1,0-.072c1.292-2.018,2.744-4.252,4.244-6.557l.678-1.045c1.452-2.218,2.927-4.459,4.331-6.573h0c.471-.71.933-1.4,1.4-2.082.191-.3.391-.582.574-.869h0c.16-.231.319-.487.471-.742l.144-.239.335-.59.144-.271.359-.7a1.917,1.917,0,0,1,.088-.183c.152-.311.3-.63.439-.957v-.1c.128-.3.255-.606.375-.909a.748.748,0,0,1,.08-.223c.112-.3.223-.59.327-.885v-.175c.191-.55.367-1.125.526-1.7h0c.16-.582.3-1.173.431-1.763v-.072Z" transform="translate(-89.574 -133.994)" fill="#00add9" opacity="0.1"/>
        <path id="Path_389" data-name="Path 389" d="M267.591,222.986a22,22,0,0,1-2.473,2.553c-3.637,3.294-7.889,4.882-12.835,8.088-3.988,2.592-10.154,6.381-15.347,9.612a77.589,77.589,0,0,1-16.751,7.721c-4.786,1.42-7.522,1.476-10.37-6.246-1.4-3.789-2.5-7.682-3.717-11.534q-2.688-8.607-5.3-17.238s-6.381-15.818,7.977-23.763c6.246,3.574,8.623,5.017,10.585,12.5,2.345,8.958,6.142,26.634,6.142,26.634A125.027,125.027,0,0,0,240.334,225c1.819-.9,4.06-1.532,5.36-3.151a24.07,24.07,0,0,0,2.281-3.558c.614-1.1,1.053-2.3,1.731-3.35a29.681,29.681,0,0,1,4.714-5.193,1.938,1.938,0,0,1,1.141-.678,1.324,1.324,0,0,1,1.157.7c.526.925.04,1.827-.231,2.768-.311,1.077-.622,2.154-.925,3.191a28.118,28.118,0,0,0,9.149-8.535,4.682,4.682,0,0,1,.718-.909,1.388,1.388,0,0,1,1.069-.391c.957.12,1.906,1.667,1.954,2.553a14.542,14.542,0,0,0,.072,2.7c.215.8.8,1.516,1.045,2.329a13.559,13.559,0,0,1,.542,2.584,8.854,8.854,0,0,1-1.452,5.416A12.762,12.762,0,0,1,267.591,222.986Z" transform="translate(-106.42 -132.049)" fill="#ffa8a7"/>
        <path id="Path_390" data-name="Path 390" d="M207.6,191.35c5.464,2.21,9.4,4.706,11.893,13.05s5.2,21.768,5.2,21.768.048,2.8-6.589,6.716a16.336,16.336,0,0,1-12.851,1.731L200.245,218.5S191.359,196.918,207.6,191.35Z" transform="translate(-106.102 -131.881)" fill="#00add9"/>
        <path id="Path_391" data-name="Path 391" d="M153.156,325.355c-4.387-.223-7.825-3.446-18.259-7.793-19.272-8.033-33.726-14.47-39.238-24.552s-9.4-39.23-8.025-51.849a16.233,16.233,0,0,1,.941-4.18l-1.356-.2,3.51-2.991h0c3.605-2.935,9.46-.319,13.88,2.09,12.619,6.86,22.486,13.56,30.312,37.626,5.863,18.115,9.732,34.643,17.836,43.481" transform="translate(-83.725 -140.205)" fill="#00add9"/>
        <path id="Path_392" data-name="Path 392" d="M88.576,236.981l-1.356-.2,3.51-2.991h0c3.605-2.935,9.46-.319,13.88,2.09,12.619,6.86,22.486,13.56,30.312,37.626,5.863,18.115,9.732,34.643,17.836,43.481l.423,8.36c-4.387-.223-7.825-3.446-18.259-7.793-19.3-8.025-33.75-14.462-39.261-24.544s-9.4-39.23-8.025-51.849a16.575,16.575,0,0,1,.941-4.18Z" transform="translate(-83.725 -140.205)" opacity="0.3"/>
        <path id="Path_393" data-name="Path 393" d="M100.069,239.778c12.611,6.86,22.478,13.56,30.312,37.626s12.069,45.372,27.44,49.5c0,0-6.948,2.768-28.246-6.246-6.78-2.864-15-8.088-20.4-11.12-10.585-5.943-17.006-10.808-18.019-12.635-5.584-10.043-9.4-39.23-8.033-51.849S93.744,236.332,100.069,239.778Z" transform="translate(-82.839 -140.992)" fill="#00add9"/>
      </g>
    </g>
    <g id="freepik--speech-bubble--inject-11" transform="translate(10.895 20.878)">
      <g id="freepik--speech-bubble--inject-11-2" data-name="freepik--speech-bubble--inject-11">
        <path id="Path_394" data-name="Path 394" d="M191,101.719l-3.462-6.549,2.8-8.1V82.12l-8.575,4.954v4.954l3.685,6.381a.5.5,0,0,0,.255.223h0Z" transform="translate(-166.979 -36.459)" fill="#00add9"/>
        <path id="Path_395" data-name="Path 395" d="M191,101.719l-3.462-6.549,2.8-8.1V82.12l-8.575,4.954v4.954l3.685,6.381a.5.5,0,0,0,.255.223h0Z" transform="translate(-166.979 -36.459)" opacity="0.2"/>
        <path id="Path_396" data-name="Path 396" d="M207.716,31.157A5.7,5.7,0,0,0,205.14,26.7l-2.09-1.2a5.679,5.679,0,0,0-5.145,0L165.8,44.072a5.687,5.687,0,0,0-2.568,4.459V83.875a5.687,5.687,0,0,0,2.568,4.451l2.1,1.212a5.679,5.679,0,0,0,5.145,0l10.33-5.967,3.685,6.381a.542.542,0,0,0,.989-.1l3.893-11.231,13.225-7.658a5.7,5.7,0,0,0,2.553-4.467Z" transform="translate(-163.23 -24.878)" fill="#00add9"/>
        <path id="Path_397" data-name="Path 397" d="M163.23,89.231a5.687,5.687,0,0,0,2.568,4.451l2.1,1.212a5.751,5.751,0,0,0,4.706.207c-1.212.455-2.138-.223-2.138-1.691V58.066a5.3,5.3,0,0,1,.758-2.537l-7.243-4.18a5.281,5.281,0,0,0-.75,2.537Z" transform="translate(-163.23 -30.234)" opacity="0.2"/>
        <path id="Path_398" data-name="Path 398" d="M207.845,30.423c-.3-1.093-1.292-1.436-2.481-.758l-32.13,18.586a5.081,5.081,0,0,0-1.811,1.922l-7.243-4.18a5.249,5.249,0,0,1,1.811-1.914l32.122-18.586a5.679,5.679,0,0,1,5.145,0l2.106,1.212A5.648,5.648,0,0,1,207.845,30.423Z" transform="translate(-163.422 -24.878)" fill="#fff" opacity="0.5"/>
        <g id="freepik----inject-11" transform="translate(11.96 21.584)">
          <path id="Path_399" data-name="Path 399" d="M178.229,73.876a1.882,1.882,0,0,1,.128-.734,5.585,5.585,0,0,1,.375-.686l6.988-11.287a.527.527,0,0,1,.112-.136l.08-.056a.191.191,0,0,1,.255,0,.463.463,0,0,1,.112.343v4.355a1.867,1.867,0,0,1-.207.909,5.714,5.714,0,0,1-.351.6l-3.605,5.488,3.605,1.659a1.531,1.531,0,0,1,.351.168c.136.088.207.311.207.662v3.095a1.037,1.037,0,0,1-.112.463.662.662,0,0,1-.255.319h-.08a.184.184,0,0,1-.112,0l-6.988-3.191a.711.711,0,0,1-.5-.838Z" transform="translate(-178.223 -53.756)" fill="#fff"/>
          <path id="Path_400" data-name="Path 400" d="M195.825,54.62a4.467,4.467,0,0,1,.263-.7,1.268,1.268,0,0,1,.511-.55l2.337-1.38a.207.207,0,0,1,.271,0,.487.487,0,0,1,.112.351,1.174,1.174,0,0,1,0,.263l-5.9,25.159a3.389,3.389,0,0,1-.247.678,1.268,1.268,0,0,1-.518.566l-2.289,1.324a.207.207,0,0,1-.271,0,.447.447,0,0,1-.112-.351,1.06,1.06,0,0,1,0-.255Z" transform="translate(-180.6 -51.937)" fill="#fff"/>
          <path id="Path_401" data-name="Path 401" d="M211.356,59.091a1.835,1.835,0,0,1-.128.734,5.583,5.583,0,0,1-.375.686l-7,11.3a1.044,1.044,0,0,1-.112.128l-.08.064a.2.2,0,0,1-.263,0,.439.439,0,0,1-.1-.343V67.283a1.787,1.787,0,0,1,.2-.893c.136-.239.255-.431.359-.582l3.055-4.722-3.055-1.165a1.276,1.276,0,0,1-.359-.183c-.136-.1-.2-.319-.2-.678V54.7a1.061,1.061,0,0,1,.1-.463.742.742,0,0,1,.263-.311h.191l6.988,3.191a.694.694,0,0,1,.5.8Z" transform="translate(-183.296 -52.34)" fill="#fff"/>
        </g>
      </g>
    </g>
    <path id="Path_750" data-name="Path 750" d="M1665.389,3.665l33.942,19.7V77.015l-33.942-19.2Z" transform="translate(-1319.422 127.822)" fill="#fff"/>
    <g id="Group_23" data-name="Group 23" transform="translate(351.777 148.396)">
      <g id="Group_21" data-name="Group 21">
        <g id="Group_20" data-name="Group 20">
          <path id="Path_756" data-name="Path 756" d="M1.607.839A1.826,1.826,0,0,0,1.285.705a1.157,1.157,0,0,0-.3-.05A.852.852,0,0,0,.722.689.83.83,0,0,0,.481.805a.9.9,0,0,0-.2.187,1,1,0,0,0-.138.246,1.378,1.378,0,0,0-.079.3,2.122,2.122,0,0,0-.02.363L.237,9.874a2.792,2.792,0,0,0,.038.4,3.008,3.008,0,0,0,.1.4,3.42,3.42,0,0,0,.153.4,4.051,4.051,0,0,0,.21.4,3.977,3.977,0,0,0,.25.372,3.236,3.236,0,0,0,.274.316,2.737,2.737,0,0,0,.3.261,2.449,2.449,0,0,0,.321.206,1.846,1.846,0,0,0,.319.136,1.154,1.154,0,0,0,.292.054.833.833,0,0,0,.264-.029.8.8,0,0,0,.237-.112.862.862,0,0,0,.194-.184.985.985,0,0,0,.136-.245,1.4,1.4,0,0,0,.079-.305,2.2,2.2,0,0,0,.021-.367L3.245,3.582a2.723,2.723,0,0,0-.037-.394,2.984,2.984,0,0,0-.1-.4,3.441,3.441,0,0,0-.154-.4,4.12,4.12,0,0,0-.212-.4,4.032,4.032,0,0,0-.252-.375A3.218,3.218,0,0,0,2.22,1.3a2.661,2.661,0,0,0-.3-.259A2.327,2.327,0,0,0,1.607.839Z" transform="translate(0 8.224)" fill="#455a64"/>
          <path id="Path_757" data-name="Path 757" d="M11.083,8.582,12.2,6.663a.293.293,0,0,0,.036-.1.284.284,0,0,0,0-.1.4.4,0,0,0-.04-.109.677.677,0,0,0-.079-.114.6.6,0,0,0-.1-.087.223.223,0,0,0-.087-.037.115.115,0,0,0-.074.012.175.175,0,0,0-.062.061L10.66,8.118q-.386-.4-.782-.751t-.8-.661Q8.67,6.4,8.254,6.134t-.841-.482q-.425-.218-.838-.381A7.443,7.443,0,0,0,5.762,5a6.171,6.171,0,0,0-.788-.156A5.33,5.33,0,0,0,4.212,4.8L3.02,1.7a.737.737,0,0,0-.064-.125.413.413,0,0,0-.075-.088A.268.268,0,0,0,2.8,1.433a.252.252,0,0,0-.1-.014.151.151,0,0,0-.075.035.125.125,0,0,0-.037.068.276.276,0,0,0,0,.1.731.731,0,0,0,.039.136L3.8,4.836a4.148,4.148,0,0,0-.8.155,3.52,3.52,0,0,0-.713.3,3.435,3.435,0,0,0-.622.45,3.878,3.878,0,0,0-.532.6,4.274,4.274,0,0,0-.422.723,4.982,4.982,0,0,0-.295.83,6.3,6.3,0,0,0-.167.937,8.354,8.354,0,0,0-.04,1.044l14.751,7.7a9.9,9.9,0,0,0-.075-1.12,11,11,0,0,0-.2-1.146q-.134-.579-.334-1.17t-.463-1.2q-.264-.6-.571-1.177t-.657-1.119q-.35-.545-.743-1.06T11.083,8.582Zm-6.525.225a.329.329,0,0,1-.2.06.438.438,0,0,1-.113-.018.674.674,0,0,1-.122-.05A.883.883,0,0,1,4,8.721a.985.985,0,0,1-.113-.1,1.174,1.174,0,0,1-.1-.121,1.463,1.463,0,0,1-.094-.143A1.571,1.571,0,0,1,3.614,8.2a1.326,1.326,0,0,1-.057-.153A1.167,1.167,0,0,1,3.522,7.9a1.084,1.084,0,0,1-.014-.152.85.85,0,0,1,.008-.14.56.56,0,0,1,.03-.118.407.407,0,0,1,.052-.1.361.361,0,0,1,.074-.075.307.307,0,0,1,.192-.063.42.42,0,0,1,.111.017.665.665,0,0,1,.122.05.891.891,0,0,1,.123.077,1.022,1.022,0,0,1,.115.1,1.239,1.239,0,0,1,.106.122,1.557,1.557,0,0,1,.1.145,1.608,1.608,0,0,1,.082.156,1.328,1.328,0,0,1,.059.154,1.14,1.14,0,0,1,.037.153,1.034,1.034,0,0,1,.014.152.81.81,0,0,1-.009.14.531.531,0,0,1-.032.118.39.39,0,0,1-.055.1A.357.357,0,0,1,4.558,8.807ZM11.3,12.3a.316.316,0,0,1-.2.062.432.432,0,0,1-.113-.018.68.68,0,0,1-.123-.05.91.91,0,0,1-.125-.078,1.032,1.032,0,0,1-.116-.1,1.242,1.242,0,0,1-.107-.123,1.553,1.553,0,0,1-.1-.146,1.586,1.586,0,0,1-.082-.156,1.31,1.31,0,0,1-.059-.155,1.131,1.131,0,0,1-.036-.154,1.034,1.034,0,0,1-.013-.153.8.8,0,0,1,.01-.141.527.527,0,0,1,.033-.118.391.391,0,0,1,.056-.1.362.362,0,0,1,.08-.073.337.337,0,0,1,.2-.059.451.451,0,0,1,.115.019.692.692,0,0,1,.124.051.9.9,0,0,1,.124.078,1,1,0,0,1,.114.1,1.188,1.188,0,0,1,.1.122,1.474,1.474,0,0,1,.095.144,1.581,1.581,0,0,1,.079.155,1.325,1.325,0,0,1,.057.154,1.158,1.158,0,0,1,.035.153,1.07,1.07,0,0,1,.013.152.844.844,0,0,1-.009.141.555.555,0,0,1-.032.119.4.4,0,0,1-.054.1A.362.362,0,0,1,11.3,12.3Z" transform="translate(3.556)" fill="#455a64"/>
          <path id="Path_758" data-name="Path 758" d="M.258,12.357a2.959,2.959,0,0,0,.04.423,3.191,3.191,0,0,0,.1.424,3.63,3.63,0,0,0,.162.425,4.3,4.3,0,0,0,.224.426,4.248,4.248,0,0,0,.268.4,3.473,3.473,0,0,0,.293.339,2.957,2.957,0,0,0,.319.28,2.664,2.664,0,0,0,.345.222l1.154.62.093,4.157a2.712,2.712,0,0,0,.036.392,2.952,2.952,0,0,0,.094.394,3.385,3.385,0,0,0,.152.4,4.193,4.193,0,0,0,.459.77,3.286,3.286,0,0,0,.272.316,2.752,2.752,0,0,0,.294.261,2.43,2.43,0,0,0,.316.205,1.92,1.92,0,0,0,.322.141,1.214,1.214,0,0,0,.3.059.877.877,0,0,0,.269-.023.822.822,0,0,0,.243-.1.843.843,0,0,0,.2-.177.938.938,0,0,0,.142-.238,1.321,1.321,0,0,0,.082-.3,2.082,2.082,0,0,0,.023-.361l-.066-4.156,2.174,1.168.059,4.161a2.693,2.693,0,0,0,.035.394,2.934,2.934,0,0,0,.093.4,3.372,3.372,0,0,0,.152.4,4.159,4.159,0,0,0,.462.775,3.3,3.3,0,0,0,.277.32,2.827,2.827,0,0,0,.3.266,2.561,2.561,0,0,0,.326.211,1.957,1.957,0,0,0,.326.143,1.242,1.242,0,0,0,.3.061.9.9,0,0,0,.273-.021.838.838,0,0,0,.247-.1.852.852,0,0,0,.2-.176.939.939,0,0,0,.145-.238,1.315,1.315,0,0,0,.085-.3,2.068,2.068,0,0,0,.025-.363l-.048-4.169,1.194.641a2.021,2.021,0,0,0,.345.149,1.3,1.3,0,0,0,.319.061.967.967,0,0,0,.293-.026.942.942,0,0,0,.487-.306,1.027,1.027,0,0,0,.157-.259,1.434,1.434,0,0,0,.093-.326,2.249,2.249,0,0,0,.028-.393L14.631,7.644,0,0Z" transform="translate(3.839 10.581)" fill="#455a64"/>
          <path id="Path_759" data-name="Path 759" d="M1.656.864A1.9,1.9,0,0,0,1.327.728a1.242,1.242,0,0,0-.3-.054A.933.933,0,0,0,.744.7.9.9,0,0,0,.491.812.892.892,0,0,0,.281,1a.985.985,0,0,0-.149.247,1.374,1.374,0,0,0-.088.311,2.148,2.148,0,0,0-.027.374l.068,8.06a2.723,2.723,0,0,0,.033.4,2.947,2.947,0,0,0,.093.4,3.376,3.376,0,0,0,.153.4,4.2,4.2,0,0,0,.468.785,3.305,3.305,0,0,0,.279.322,2.786,2.786,0,0,0,.3.266,2.482,2.482,0,0,0,.326.209,1.982,1.982,0,0,0,.333.143,1.269,1.269,0,0,0,.307.06.928.928,0,0,0,.28-.024.874.874,0,0,0,.254-.108.89.89,0,0,0,.21-.181.973.973,0,0,0,.15-.244,1.348,1.348,0,0,0,.089-.307,2.105,2.105,0,0,0,.028-.37L3.345,3.672a2.743,2.743,0,0,0-.033-.406,2.942,2.942,0,0,0-.094-.407,3.337,3.337,0,0,0-.155-.407,3.95,3.95,0,0,0-.216-.407,3.978,3.978,0,0,0-.259-.379A3.288,3.288,0,0,0,2.3,1.342a2.829,2.829,0,0,0-.311-.267A2.574,2.574,0,0,0,1.656.864Z" transform="translate(19.116 18.204)" fill="#455a64"/>
        </g>
      </g>
    </g>
  </g>
</svg>
