<svg width="445" height="298" viewBox="0 0 445 298" fill="none" xmlns="http://www.w3.org/2000/svg">
<g clip-path="url(#clip0)">
<path fill-rule="evenodd" clip-rule="evenodd" d="M283.198 47.771C201.684 81.9807 156.292 -61.2448 46.0043 32.1973C-38.0454 103.416 3.32352 258.278 87.9855 288.463C177.983 320.486 204.046 260.903 255.035 269.827C287.746 275.514 302.701 214.532 346.782 229.493C400.657 247.779 448.936 229.406 444.825 162.999C440.015 85.8303 375.469 8.9243 283.198 47.771Z" fill="#EFF7FE"/>
<path fill-rule="evenodd" clip-rule="evenodd" d="M61.135 79.2684H90.2594C91.4839 79.2684 92.7083 80.3183 92.7958 81.5432L101.454 113.565C101.804 114.79 100.755 115.84 99.4428 115.84H60.5228C59.2983 115.84 58.0739 114.79 57.9864 113.565L59.2109 81.5432C59.2109 80.2308 59.9106 79.2684 61.135 79.2684Z" fill="#0E63C0"/>
<path fill-rule="evenodd" clip-rule="evenodd" d="M124.719 259.328H133.378C134.777 259.328 136.089 260.466 136.264 261.866L140.812 297.825V297.913C136.351 298 131.803 297.913 126.905 297.388L122.357 261.866C122.27 260.466 123.32 259.328 124.719 259.328Z" fill="#424246"/>
<path fill-rule="evenodd" clip-rule="evenodd" d="M82.9127 107.703H87.3732C88.0729 107.703 88.7726 108.316 88.8601 109.016L91.2215 127.477C91.309 128.177 90.7842 128.789 90.0845 128.789H85.624C84.9243 128.789 84.2246 128.177 84.1372 127.477L81.7757 109.016C81.6883 108.228 82.213 107.703 82.9127 107.703Z" fill="#424246"/>
<path fill-rule="evenodd" clip-rule="evenodd" d="M48.8031 125.202H102.329C103.816 125.202 105.128 126.427 105.303 127.827L119.821 242.442C119.996 243.93 118.947 245.067 117.547 245.067H64.0212C62.5344 245.067 61.2225 243.842 61.0476 242.442L46.4416 127.914C46.2667 126.427 47.3162 125.202 48.8031 125.202Z" fill="#0E63C0"/>
<path fill-rule="evenodd" clip-rule="evenodd" d="M59.2109 125.202H112.737C114.224 125.202 115.536 126.427 115.71 127.827L130.229 242.355C130.404 243.842 129.354 244.979 127.955 244.979H74.429C72.9422 244.979 71.6303 243.755 71.4554 242.355L56.8494 127.914C56.6745 126.427 57.724 125.202 59.2109 125.202Z" fill="#0D539F"/>
<path fill-rule="evenodd" clip-rule="evenodd" d="M68.6566 79.2684H97.7811C99.0055 79.2684 100.23 80.3183 100.317 81.5432L108.976 113.565C109.326 114.79 108.276 115.84 106.964 115.84H68.0444C66.82 115.84 65.5955 114.79 65.5081 113.565L66.7325 81.5432C66.7325 80.2308 67.4322 79.2684 68.6566 79.2684Z" fill="#0D539F"/>
<path fill-rule="evenodd" clip-rule="evenodd" d="M179.294 247.867H77.9275C75.8284 247.867 74.1667 249.529 74.1667 251.629V266.853C74.1667 268.952 75.8284 270.615 77.9275 270.615H179.294C181.393 270.615 183.055 268.952 183.055 266.853V251.629C183.055 249.617 181.393 247.867 179.294 247.867Z" fill="#0D539F"/>
<path fill-rule="evenodd" clip-rule="evenodd" d="M214.803 189.334C197.924 194.934 172.997 207.445 158.829 201.408C149.995 197.646 146.147 194.234 144.835 182.422C141.949 157.399 137.926 139.813 141.861 127.564C146.409 113.391 161.715 116.89 161.365 129.927C160.84 152.325 161.19 170.961 164.951 179.622C169.324 189.597 198.098 178.135 211.218 174.635C220.926 172.098 225.299 185.834 214.803 189.334Z" fill="#1369D7"/>
<path d="M129.442 205.17C145.797 202.371 208.506 207.358 222.587 220.831C229.06 227.043 234.482 248.304 238.068 269.215C229.584 270.09 221.625 272.627 213.666 275.864C212.704 272.977 211.655 270.09 210.78 267.203C208.506 259.853 207.981 250.142 206.844 245.592H129.442C107.402 245.767 102.154 209.807 129.442 205.17Z" fill="#022A55"/>
<path d="M113.961 209.895C130.316 207.095 193.026 212.082 207.107 225.556C214.629 232.818 206.145 259.416 198.536 282.426C190.14 286.188 181.306 290.038 171.51 292.925C172.21 284.264 173.609 275.427 175.709 268.165C178.245 259.328 180.606 255.391 179.382 250.404H113.874C91.9212 250.492 86.761 214.532 113.961 209.895Z" fill="#022A55"/>
<path fill-rule="evenodd" clip-rule="evenodd" d="M95.0698 239.642C91.134 218.207 72.8547 185.922 96.0318 127.039C111.775 87.0552 167.487 107.091 160.928 134.739C152.444 170.436 152.094 172.098 153.056 204.733C117.285 205.433 116.498 239.205 95.0698 239.642Z" fill="#227AEB"/>
<path fill-rule="evenodd" clip-rule="evenodd" d="M156.38 99.3917L146.934 117.678C144.922 121.177 140.462 122.402 136.876 120.39C133.378 118.378 132.153 113.915 134.165 110.328C134.34 109.978 134.602 109.716 134.777 109.453L147.896 93.7921C149.645 91.6048 152.794 91.1673 155.068 92.9172C157.079 94.4921 157.604 97.2918 156.38 99.3917Z" fill="#F2B9BF"/>
<path fill-rule="evenodd" clip-rule="evenodd" d="M158.391 200.971C140.637 201.758 113.262 207.008 101.279 197.296C93.7578 191.259 91.0466 186.972 92.9707 175.16C97.0814 150.312 99.7926 129.139 106.964 118.465C115.186 106.129 129.005 113.565 125.156 126.077C118.509 147.513 111.95 168.598 113.262 178.048C114.748 188.897 145.535 185.659 159.178 185.834C168.974 186.009 169.411 200.446 158.391 200.971Z" fill="#1369D7"/>
<path fill-rule="evenodd" clip-rule="evenodd" d="M132.94 81.2807C138.8 118.203 173.784 110.241 170.111 76.9061C165.738 42.8714 129.879 44.9713 132.94 81.2807Z" fill="#F2B9BF"/>
<path fill-rule="evenodd" clip-rule="evenodd" d="M130.754 61.5074C130.316 52.2331 137.838 48.5584 145.097 48.7334C151.132 48.9084 155.767 55.2079 159.878 54.4204C182.53 49.8708 177.458 69.0317 174.834 70.8691C168.362 75.2437 164.251 63.6947 151.045 69.2067C147.459 70.6941 143.96 69.4692 141.162 67.5443C142.124 69.3817 141.861 71.044 141.162 72.7064C140.987 73.0564 144.66 76.3811 147.196 81.6307C148.683 84.7804 147.983 89.855 150.695 91.9548C152.444 93.2672 155.593 94.842 157.779 93.7921C160.053 92.7422 161.802 91.4298 163.639 91.5173C165.476 91.6048 165.825 93.6172 166.35 94.8421C166.788 95.9795 167.924 95.892 167.837 97.2044C167.837 97.5543 164.601 102.104 160.578 104.379C157.079 106.391 152.182 106.654 149.295 104.466C145.972 102.016 142.036 92.0423 142.998 83.7305C143.785 76.9061 137.751 78.9184 137.576 79.3558C135.826 83.7305 135.214 89.855 140.899 100.004C139.5 100.529 128.655 98.6917 127.08 87.4927C126.206 80.5807 119.909 61.7698 130.754 61.5074Z" fill="#11112A"/>
<path d="M172.735 185.047C176.233 184.872 189.265 189.247 190.052 192.659C189.527 194.934 180.344 195.284 176.845 195.809C174.134 196.246 171.423 196.946 168.712 197.646C166.525 198.171 163.814 198.958 161.627 198.171C159.004 197.121 156.73 193.796 158.129 190.996C160.49 187.409 168.537 185.309 172.735 185.047Z" fill="#F2B9BF"/>
<path fill-rule="evenodd" clip-rule="evenodd" d="M132.678 82.3306C132.503 86.3553 134.777 89.68 137.663 89.7675C140.549 89.855 142.998 86.6178 143.173 82.5931C143.348 78.5684 141.074 75.2437 138.188 75.1562C135.302 75.0687 132.765 78.3059 132.678 82.3306Z" fill="#F2B9BF"/>
<path d="M227.573 178.573C230.721 179.972 240.604 189.597 239.73 193.009C238.243 194.846 229.847 191.084 226.523 190.034C223.899 189.159 221.101 188.722 218.389 188.109C216.203 187.584 213.404 187.147 211.742 185.484C209.818 183.385 209.293 179.36 211.742 177.523C215.591 175.335 223.724 176.998 227.573 178.573Z" fill="#F2B9BF"/>
<path fill-rule="evenodd" clip-rule="evenodd" d="M253.111 193.009H160.053C159.528 193.009 159.178 193.446 159.178 193.884V197.208C159.178 197.733 159.616 198.083 160.053 198.083H253.199C253.723 198.083 254.073 197.646 254.073 197.208V193.884C254.073 193.359 253.636 193.009 253.111 193.009Z" fill="#0D539F"/>
<path fill-rule="evenodd" clip-rule="evenodd" d="M289.145 155.562H260.895C260.37 155.562 259.846 155.999 259.846 156.612V197.121C259.846 197.646 260.283 198.171 260.895 198.171H289.145C289.67 198.171 290.195 197.733 290.195 197.121V156.612C290.107 155.999 289.67 155.562 289.145 155.562Z" fill="#022A55"/>
<path fill-rule="evenodd" clip-rule="evenodd" d="M337.161 82.6806H236.669C233.957 82.6806 231.421 84.9554 231.071 87.6677L222.15 157.399C221.8 160.112 223.724 162.386 226.523 162.386H327.015C329.727 162.386 332.263 160.112 332.613 157.399L341.534 87.5802C341.884 84.8679 339.872 82.6806 337.161 82.6806Z" fill="#0D539F"/>
<path fill-rule="evenodd" clip-rule="evenodd" d="M281.011 134.739C274.714 134.739 269.904 129.577 270.341 123.277C270.778 116.978 276.288 111.816 282.586 111.816C288.883 111.816 293.693 116.978 293.256 123.277C292.818 129.577 287.308 134.739 281.011 134.739Z" fill="#022A55"/>
<path fill-rule="evenodd" clip-rule="evenodd" d="M234.045 82.6806H231.421C228.71 82.6806 226.173 84.9554 225.824 87.6677L216.903 157.399C216.553 160.112 218.477 162.386 221.276 162.386H223.899C226.611 162.386 229.147 160.112 229.497 157.399L238.418 87.5802C238.68 84.8679 236.756 82.6806 234.045 82.6806Z" fill="#0A4484"/>
<path d="M128.659 186.773C125.685 186.773 123.236 184.323 123.236 181.349C123.236 178.374 125.685 175.924 128.659 175.924C129.446 175.924 130.233 176.099 130.845 176.449L131.545 185.898C130.758 186.423 129.796 186.773 128.659 186.773ZM139.591 167H130.233L130.67 172.862C130.058 172.687 129.358 172.599 128.746 172.599C123.936 172.599 120 176.537 120 181.349C120 186.161 123.936 190.098 128.746 190.098C129.883 190.098 130.933 189.835 131.982 189.485L132.682 198.235H146.588L149.037 167H139.591Z" fill="#FCEA4A"/>
<path fill-rule="evenodd" clip-rule="evenodd" d="M375.819 235.705V204.733H371.708V235.355C373.02 235.443 374.419 235.618 375.819 235.705ZM260.196 270.177V204.733H256.085V269.915C257.484 270.177 258.884 270.177 260.196 270.177Z" fill="#93939B"/>
<path d="M386 198H109V207H386V198Z" fill="#022A55"/>
<path fill-rule="evenodd" clip-rule="evenodd" d="M270.254 26.7727H301.477C309.523 26.7727 316.083 33.3347 316.083 41.384C316.083 49.4333 309.523 55.9953 301.477 55.9953H275.064L265.356 65.707C264.831 66.2319 263.956 66.2319 263.432 65.707C263.169 65.4445 262.994 65.0945 263.082 64.7445C263.082 60.0199 263.082 56.8702 263.082 54.0704C258.621 51.5332 255.648 46.8086 255.648 41.2965C255.56 33.3347 262.207 26.7727 270.254 26.7727Z" fill="#F5367B"/>
<path fill-rule="evenodd" clip-rule="evenodd" d="M304.801 35.1721H266.843C266.405 35.1721 266.055 35.522 266.055 35.9595V36.5719C266.055 37.0094 266.405 37.3594 266.843 37.3594H304.801C305.238 37.3594 305.588 37.0094 305.588 36.5719V35.9595C305.588 35.522 305.238 35.1721 304.801 35.1721Z" fill="#FEFEFE"/>
<path fill-rule="evenodd" clip-rule="evenodd" d="M304.801 39.8092H266.843C266.405 39.8092 266.055 40.1591 266.055 40.5966V41.2091C266.055 41.6465 266.405 41.9965 266.843 41.9965H304.801C305.238 41.9965 305.588 41.6465 305.588 41.2091V40.5966C305.588 40.1591 305.238 39.8092 304.801 39.8092Z" fill="#FEFEFE"/>
<path fill-rule="evenodd" clip-rule="evenodd" d="M280.749 44.7087H266.843C266.405 44.7087 266.055 45.0587 266.055 45.4962V46.1086C266.055 46.5461 266.405 46.8961 266.843 46.8961H280.749C281.186 46.8961 281.536 46.5461 281.536 46.1086V45.4962C281.536 45.0587 281.186 44.7087 280.749 44.7087Z" fill="#FEFEFE"/>
<path d="M385.588 118.649H391.535V115.15C391.535 114.537 391.273 114.012 390.923 113.662C390.573 113.312 390.049 113.05 389.436 113.05H361.974C361.361 113.05 360.837 113.312 360.487 113.662C360.137 114.012 359.875 114.537 359.875 115.15V126.786C359.875 130.636 359.875 134.573 359.875 138.423C359.875 138.51 359.875 138.51 359.875 138.598C359.875 138.598 359.875 138.685 359.962 138.685C360.05 138.773 360.137 138.773 360.224 138.773C360.312 138.773 360.399 138.773 360.487 138.685L366.959 132.211L367.134 132.036H367.396H382.177V122.149C382.177 121.187 382.614 120.312 383.227 119.699C383.751 119.087 384.626 118.649 385.588 118.649ZM392.672 118.649H416.549C417.511 118.649 418.386 119.087 418.998 119.699C419.61 120.312 420.048 121.187 420.048 122.149C420.048 124.249 420.048 126.961 420.048 135.273C420.048 139.648 420.048 144.022 420.048 148.397C420.048 148.572 420.048 148.834 419.96 149.009C419.873 149.184 419.785 149.359 419.61 149.534C419.348 149.797 418.911 149.972 418.561 149.972C418.211 149.972 417.774 149.797 417.511 149.534L410.427 142.447H385.675C384.713 142.447 383.839 142.01 383.227 141.398C382.614 140.785 382.177 139.91 382.177 138.948V133.173H367.659L361.361 139.473C361.099 139.735 360.749 139.91 360.399 139.91C360.05 139.91 359.7 139.735 359.437 139.473C359.262 139.298 359.175 139.21 359.087 139.035C359 138.86 359 138.685 359 138.51C359 134.661 359 130.723 359 126.874C359 119.087 359 116.812 359 115.237C359 114.362 359.35 113.575 359.962 112.962C360.574 112.35 361.361 112 362.236 112H389.699C390.573 112 391.36 112.35 391.973 112.962C392.585 113.575 392.935 114.362 392.935 115.237V118.649H392.672ZM416.549 119.787C417.249 119.787 417.861 120.049 418.298 120.487C418.736 120.924 418.998 121.537 418.998 122.237V135.361C418.998 139.735 418.998 144.11 418.998 148.484C418.998 148.572 418.998 148.572 418.998 148.659C418.998 148.747 418.911 148.747 418.911 148.834C418.823 148.922 418.736 149.009 418.561 149.009C418.473 149.009 418.298 148.922 418.211 148.834L410.952 141.573L410.777 141.398H410.514H385.501C384.801 141.398 384.189 141.135 383.751 140.698C383.314 140.26 383.052 139.648 383.052 138.948V133.173V132.648V122.237C383.052 121.537 383.314 120.924 383.751 120.487C384.189 120.049 384.801 119.787 385.501 119.787H392.585H416.549Z" fill="#CEE7FD"/>
</g>
<defs>
<clipPath id="clip0">
<rect width="445" height="298" fill="white"/>
</clipPath>
</defs>
</svg>
