<?xml version="1.0" encoding="utf-8"?>
<!-- Generator: Adobe Illustrator 15.1.0, SVG Export Plug-In . SVG Version: 6.00 Build 0)  -->
<!DOCTYPE svg PUBLIC "-//W3C//DTD SVG 1.1//EN" "http://www.w3.org/Graphics/SVG/1.1/DTD/svg11.dtd">
<svg version="1.1" id="Layer_1" xmlns="http://www.w3.org/2000/svg" xmlns:xlink="http://www.w3.org/1999/xlink" x="0px" y="0px"
	 width="357px" height="260px" viewBox="0 0 357 260" enable-background="new 0 0 357 260" xml:space="preserve">
<g id="Group_521" transform="translate(-5424.845 -380.167)">
	<g id="background" transform="translate(5424.846 380.167)">
		<g id="Group_382" transform="translate(0 9.041)">
			<g id="Group_381">
				<path id="Path_638" fill="#E0D7FF" d="M239.944,77.345c-8.422-7.985-13.824-14.042-17.4-22.873
					c-5.81-14.345-0.252-23.591-12.567-32.378c-17.051-12.165-32.441,7.667-52.758,3.748c-25.328-4.886-25.986-23.785-47.87-27.417
					C87.241-5.243,68.334,19.972,61.614,39.571c-8.03,23.416-3.902,54.083,13.211,76.389c18.112,23.604,33.753,15.669,59.883,40.237
					c33.55,31.545,23.153,59.095,52.222,79.334c26.976,18.782,67.299,16.898,77.161-0.223c6.499-11.278-4.323-21.686,2.082-39.649
					c6.836-19.177,21.784-14.903,28.021-32.229c6.722-18.676-1.755-48.362-18.986-63.574
					C263.843,89.825,255.859,92.433,239.944,77.345z"/>
			</g>
		</g>
		<g id="Group_384" transform="translate(18.039 152.154)">
			<g id="Group_383">
				<path id="Path_639" fill="#B1B6F6" d="M57.11-23.849c-1.632,0-2.955-1.323-2.955-2.954c0-1.632,1.323-2.956,2.955-2.956
					s2.955,1.323,2.955,2.954l0,0C60.064-25.173,58.741-23.85,57.11-23.849z M57.11-28.577c-0.979,0-1.772,0.793-1.772,1.772
					s0.793,1.772,1.772,1.772s1.772-0.794,1.772-1.772S58.089-28.577,57.11-28.577L57.11-28.577L57.11-28.577z"/>
			</g>
		</g>
		<g id="Group_386" transform="translate(52.567)">
			<g id="Group_385">
				<path id="Path_640" fill="#303886" d="M50.396,5.732c-1.632,0.001-2.955-1.322-2.955-2.953
					c-0.001-1.632,1.322-2.956,2.954-2.957c1.632,0,2.955,1.322,2.955,2.954c0,0,0,0,0,0.001
					C53.349,4.409,52.027,5.729,50.396,5.732z M50.396,1.004c-0.979,0-1.772,0.793-1.772,1.772c0,0.979,0.794,1.772,1.773,1.772
					s1.772-0.793,1.772-1.772c-0.001-0.978-0.794-1.77-1.772-1.77V1.004z"/>
			</g>
		</g>
		<g id="Group_388" transform="translate(136.404 149.954)">
			<g id="Group_387">
				<path id="Path_641" fill="#01AEB3" d="M34.095-23.422c-1.632,0-2.955-1.322-2.955-2.954s1.322-2.956,2.955-2.956
					c1.632,0,2.955,1.323,2.955,2.956l0,0C37.048-24.745,35.726-23.424,34.095-23.422z M34.095-28.149
					c-0.979,0-1.772,0.793-1.772,1.772c0,0.979,0.794,1.772,1.772,1.772s1.772-0.793,1.772-1.772
					C35.867-27.356,35.074-28.149,34.095-28.149L34.095-28.149z"/>
			</g>
		</g>
		<g id="Group_390" transform="translate(292.664 218.724)">
			<g id="Group_389">
				<path id="Path_642" fill="#303886" d="M3.713-36.791c-1.632,0-2.954-1.323-2.954-2.955c0-1.634,1.322-2.955,2.954-2.955
					c1.633,0,2.956,1.321,2.956,2.955l0,0C6.665-38.117,5.345-36.795,3.713-36.791z M3.713-41.519c-0.979,0-1.771,0.792-1.771,1.771
					c0,0.979,0.793,1.771,1.773,1.771c0.979,0,1.771-0.792,1.771-1.771C5.485-40.727,4.693-41.519,3.713-41.519L3.713-41.519z"/>
			</g>
		</g>
		<g id="Group_392" transform="translate(215.721 0.03)">
			<g id="Group_391">
				<path id="Path_643" fill="#B1B6F6" d="M18.673,5.729c-1.632,0-2.955-1.323-2.955-2.955s1.323-2.955,2.955-2.956
					c1.633,0,2.955,1.323,2.955,2.956l0,0C21.627,4.405,20.304,5.727,18.673,5.729z M18.673,1.001c-0.979,0-1.771,0.793-1.771,1.772
					c0,0.979,0.793,1.772,1.772,1.772c0.979,0,1.772-0.793,1.772-1.772C20.446,1.794,19.652,1.001,18.673,1.001L18.673,1.001z"/>
			</g>
		</g>
		<g id="plants" transform="translate(226.449 24.266)">
			<g id="Group_405" transform="translate(1.579 51.449)">
				<g id="Group_395" transform="translate(1.716)">
					<g id="Group_394">
						<g id="Group_393">
							<path id="Path_644" fill="#CED0F6" d="M59.382-11.951c3.102,3.158,3.61,7.744,2.116,9.804
								c-1.427,1.967-3.775,0.38-5.403,2.127c-2.559,2.744,1.835,8.153-0.017,11.806c-1.911,3.771-7.661,0.108-11.647,3.361
								c-4.887,3.987,0.564,12.09-3.553,17.233c-3.947,4.921-15.444,5.619-22.49-1.612c-6.219-6.386-6.88-16.817-2.918-20.839
								c4.628-4.699,13.529,1.416,17.281-3.601c3.371-4.505-2.037-11.791,1.845-14.784c3.247-2.505,8.031,1.82,12.463-1.18
								c2.91-1.971,2.465-4.932,5.571-5.236C54.773-15.081,57.458-13.911,59.382-11.951z"/>
						</g>
					</g>
				</g>
				<g id="Group_398" transform="translate(0 9.67)">
					<g id="Group_397">
						<g id="Group_396">
							<path id="Path_645" fill="#FFFFFF" d="M13.733,32.426c-0.025,0.002-0.05,0.002-0.075,0c-0.196-0.015-0.345-0.188-0.328-0.384
								v-0.001c0.411-5.251,7.63-15.054,21.455-29.138c10.261-10.454,20.537-19.502,20.64-19.592
								c0.147-0.13,0.374-0.116,0.504,0.032c0.131,0.148,0.117,0.375-0.031,0.505c-0.408,0.359-40.899,36.082-41.854,48.249
								C14.03,32.266,13.9,32.404,13.733,32.426z"/>
						</g>
					</g>
				</g>
				<g id="Group_401" transform="translate(11.633 34.386)">
					<g id="Group_400">
						<g id="Group_399">
							<path id="Path_646" fill="#FFFFFF" d="M26.46-9.407c-0.021,0.002-0.042,0.002-0.063,0l-13.741-0.679
								c-0.175-0.009-0.317-0.144-0.337-0.317l-1.253-10.783c-0.027-0.191,0.104-0.366,0.293-0.395
								c0.008-0.001,0.015-0.001,0.023-0.002c0.195-0.023,0.373,0.117,0.396,0.313v0.001l1.219,10.482l13.437,0.667
								c0.198,0.005,0.353,0.172,0.345,0.369c-0.004,0.178-0.14,0.324-0.316,0.343L26.46-9.407z"/>
						</g>
					</g>
				</g>
				<g id="Group_404" transform="translate(34.211 12.156)">
					<g id="Group_403">
						<g id="Group_402">
							<path id="Path_647" fill="#FFFFFF" d="M18.179-4.725c-0.04,0.006-0.082,0.003-0.121-0.006L8.646-6.825
								c-0.142-0.032-0.25-0.146-0.275-0.29L6.679-16.84c-0.034-0.194,0.096-0.38,0.291-0.415c0.195-0.033,0.382,0.098,0.416,0.293
								l1.648,9.489l9.18,2.043c0.192,0.042,0.315,0.232,0.274,0.425c-0.032,0.149-0.156,0.262-0.308,0.28L18.179-4.725z"/>
						</g>
					</g>
				</g>
			</g>
			<g id="Group_424">
				<g id="Group_408" transform="translate(0 14.346)">
					<g id="Group_407">
						<g id="Group_406">
							<path id="Path_648" fill="#303886" d="M14.399,43.712c-0.216,0.145-0.509,0.087-0.655-0.128
								c-0.045-0.067-0.071-0.145-0.079-0.226c-0.494-6.065,4.902-16.486,16.038-30.968C37.957,1.656,46.464-7.443,46.549-7.533
								c0.188-0.183,0.486-0.179,0.669,0.007c0.171,0.176,0.18,0.451,0.021,0.638c-0.339,0.36-33.77,36.203-32.634,50.168
								C14.62,43.45,14.54,43.616,14.399,43.712z"/>
						</g>
					</g>
				</g>
				<g id="Group_411" transform="translate(40.717)">
					<g id="Group_410">
						<g id="Group_409">
							<path id="Path_649" fill="#303886" d="M14.918,4.58c-2.64,1.652-5.595,2.735-8.677,3.179
								c-0.259,0.03-0.493-0.156-0.522-0.415C5.714,7.301,5.715,7.256,5.722,7.213C7.495-3.64,19.114-4.878,19.232-4.891
								c0.128-0.012,0.258,0.029,0.355,0.115c0.099,0.085,0.157,0.207,0.162,0.337C19.917-0.09,17.645,2.746,14.918,4.58z
								 M6.774,6.723C9.34,6.267,18.721,4.055,18.813-3.88C16.659-3.542,8.536-1.711,6.774,6.723z"/>
						</g>
					</g>
				</g>
				<g id="Group_414" transform="translate(24.102 29.152)">
					<g id="Group_413">
						<g id="Group_412">
							<path id="Path_650" fill="#303886" d="M24.715-4.527C18.45-0.318,9.271-6.03,9.168-6.098c-0.222-0.139-0.288-0.429-0.15-0.65
								c0.02-0.031,0.043-0.06,0.069-0.086c7.863-7.721,17.996-1.062,18.098-0.994c0.216,0.144,0.275,0.435,0.131,0.652
								c0,0.001-0.002,0.002-0.002,0.003C26.626-6.13,25.744-5.232,24.715-4.527z M10.204-6.586
								c2.274,1.263,11.263,5.667,16.041-0.711c-1.655-0.954-3.449-1.642-5.318-2.04c-3.809-0.936-7.834,0.095-10.723,2.75V-6.586z"
								/>
						</g>
					</g>
				</g>
				<g id="Group_417" transform="translate(20.22 11.811)">
					<g id="Group_416">
						<g id="Group_415">
							<path id="Path_651" fill="#303886" d="M13.565,11.236c-0.2,0.135-0.471,0.097-0.626-0.089
								C5.889,2.708,12.544-6.894,12.612-6.99c0.149-0.212,0.443-0.263,0.657-0.113c0.008,0.005,0.015,0.01,0.023,0.018
								c8.195,6.544,0.479,18.08,0.401,18.195C13.66,11.159,13.616,11.203,13.565,11.236z M13.1-6.013
								c-1.151,1.853-5.073,9.196,0.154,16.041C14.586,7.789,19.043-0.758,13.1-6.013z"/>
						</g>
					</g>
				</g>
				<g id="Group_420" transform="translate(7.284 50.633)">
					<g id="Group_419">
						<g id="Group_418">
							<path id="Path_652" fill="#303886" d="M27.361-8.912c-5.719,3.841-14.733,0.384-14.844,0.34
								c-0.137-0.053-0.241-0.167-0.282-0.308c-0.04-0.14-0.014-0.291,0.072-0.41c6.486-8.89,17.964-4.236,18.076-4.189
								c0.241,0.101,0.354,0.378,0.254,0.619c-0.003,0.004-0.004,0.009-0.006,0.014C29.932-11.253,28.799-9.89,27.361-8.912z
								 M13.46-9.241c2.533,0.832,12.392,3.529,16.088-3.538C27.444-13.497,18.819-15.904,13.46-9.241z"/>
						</g>
					</g>
				</g>
				<g id="Group_423" transform="translate(1.148 35.364)">
					<g id="Group_422">
						<g id="Group_421">
							<path id="Path_653" fill="#8FD0D6" d="M19.088,6.65c-0.176,0.12-0.41,0.105-0.571-0.033
								c-8.318-7.16-3.983-17.986-3.939-18.093c0.1-0.242,0.376-0.357,0.618-0.257c0.018,0.008,0.033,0.016,0.051,0.025
								C24.38-6.6,19.316,6.306,19.264,6.435C19.228,6.523,19.167,6.598,19.088,6.65z M15.266-10.597
								C14.571-8.484,12.464-0.38,18.618,5.434C19.453,2.904,21.951-6.379,15.266-10.597L15.266-10.597z"/>
						</g>
					</g>
				</g>
			</g>
		</g>
	</g>
	<g id="tablet" transform="translate(5471.445 406.758)">
		<g id="Group_425" transform="translate(0 3.294)">
			<path id="Rectangle_313" fill="#303886" d="M60.167-5.986h132.609c6.388,0,11.565,5.178,11.565,11.564v182.5
				c0,6.389-5.178,11.566-11.565,11.566H60.167c-6.387,0-11.565-5.178-11.565-11.566V5.579C48.602-0.807,53.78-5.986,60.167-5.986z"
				/>
		</g>
		<g id="Group_426" transform="translate(54.37 3.941)">
			<rect id="Rectangle_314" x="38.031" y="-6.111" fill="#CED0F6" width="70.209" height="9.279"/>
		</g>
		<g id="document" transform="translate(12.187 10.188)">
			<g id="Group_427">
				<path id="Path_654" fill="#FFFFFF" d="M165.726,185.723H46.941c-0.391,0-0.708-0.316-0.708-0.709V-6.618
					c0-0.392,0.316-0.708,0.708-0.708h134.69c0.39,0,0.707,0.316,0.707,0.708v176.776L165.726,185.723z"/>
			</g>
			<g id="Group_428" transform="translate(147.845 219.823)">
				<path id="Path_655" fill="#FFFFFF" d="M34.492-49.673H18.587c-0.391,0-0.707,0.316-0.708,0.706l0,0V-34.1L34.492-49.673z"/>
				<path id="Path_656" fill="#CED0F6" d="M17.88-33.707c-0.216-0.001-0.394-0.176-0.394-0.393v-14.865
					c0.003-0.608,0.494-1.1,1.102-1.102h15.905c0.217,0,0.395,0.177,0.395,0.394c0,0.108-0.047,0.213-0.125,0.286L18.15-33.814
					C18.076-33.746,17.98-33.707,17.88-33.707z M18.588-49.281c-0.174,0-0.314,0.141-0.314,0.313l0,0v13.957l15.226-14.271
					L18.588-49.281z"/>
			</g>
			<g id="Group_462" transform="translate(12.444 86.676)">
				<g id="Group_439">
					<g id="Group_433" transform="translate(35.741 5.331)">
						<g id="Group_430">
							<g id="Group_429">
								<path id="Path_657" fill="#EDEDFA" d="M121.74-22.138H38.463c-0.867,0.016-1.583-0.673-1.6-1.539l0,0
									c0.018-0.867,0.734-1.555,1.6-1.539h83.277c0.867-0.016,1.583,0.672,1.6,1.539l0,0
									C123.323-22.81,122.607-22.121,121.74-22.138z"/>
							</g>
						</g>
						<g id="Group_432" transform="translate(0 9.439)">
							<g id="Group_431">
								<path id="Path_658" fill="#EDEDFA" d="M116.485-23.972H38.463c-0.867,0.016-1.583-0.673-1.6-1.54l0,0
									c0.018-0.866,0.733-1.555,1.6-1.539h78.022c0.866-0.016,1.583,0.673,1.6,1.539l0,0
									C118.068-24.644,117.352-23.955,116.485-23.972z"/>
							</g>
						</g>
					</g>
					<g id="Group_438">
						<g id="Group_435" transform="translate(0.488 0.488)">
							<g id="Group_434">
								<path id="Path_659" fill="#FFFFFF" d="M44.819-5.793c-0.608,0-1.101-0.493-1.101-1.102v-16.277
									c0-0.462,0.376-1.102,0.748-1.102h16.281c1.072,0,1.455,0.569,1.455,1.102V-6.89C62.2-6.283,61.708-5.79,61.099-5.789
									L44.819-5.793z"/>
							</g>
						</g>
						<g id="Group_437">
							<g id="Group_436">
								<path id="Path_660" fill="#B1B6F6" d="M61.235-23.392c0.744,0,1.062,0.317,1.062,0.708v16.279
									c0,0.391-0.317,0.707-0.708,0.707H45.307c-0.391,0-0.708-0.316-0.708-0.707v-16.279c0.01-0.277,0.139-0.535,0.355-0.708
									H61.235 M61.235-24.178H44.954c-0.662,0-1.141,0.892-1.141,1.494v16.279c0,0.825,0.669,1.493,1.494,1.495h16.282
									c0.825-0.001,1.494-0.67,1.495-1.495v-16.279C63.084-23.428,62.512-24.178,61.235-24.178L61.235-24.178z"/>
							</g>
						</g>
					</g>
				</g>
				<g id="Group_450" transform="translate(0 36.167)">
					<g id="Group_444" transform="translate(35.741 5.331)">
						<g id="Group_441">
							<g id="Group_440">
								<path id="Path_661" fill="#EDEDFA" d="M121.74-29.17H38.463c-0.866,0.018-1.583-0.671-1.6-1.538l0,0
									c0.018-0.867,0.733-1.557,1.6-1.539h83.277c0.867-0.016,1.583,0.672,1.6,1.539l0,0
									C123.323-29.841,122.607-29.152,121.74-29.17z"/>
							</g>
						</g>
						<g id="Group_443" transform="translate(0 9.439)">
							<g id="Group_442">
								<path id="Path_662" fill="#EDEDFA" d="M116.485-31.003H38.463c-0.867,0.017-1.583-0.672-1.6-1.539l0,0
									c0.018-0.867,0.733-1.557,1.6-1.54h78.022c0.866-0.017,1.583,0.673,1.6,1.54l0,0
									C118.068-31.675,117.352-30.987,116.485-31.003z"/>
							</g>
						</g>
					</g>
					<g id="Group_449">
						<g id="Group_446" transform="translate(0.488 0.489)">
							<g id="Group_445">
								<path id="Path_663" fill="#FFFFFF" d="M44.819-12.821c-0.608-0.002-1.101-0.494-1.101-1.102v-16.283
									c0-0.46,0.376-1.102,0.748-1.102h16.281c1.072,0,1.455,0.57,1.455,1.102v16.283c0,0.609-0.494,1.102-1.103,1.102H44.819z"/>
							</g>
						</g>
						<g id="Group_448">
							<g id="Group_447">
								<path id="Path_664" fill="#B1B6F6" d="M61.235-30.425c0.744,0,1.062,0.318,1.062,0.708v16.283
									c0,0.391-0.317,0.707-0.708,0.707H45.307c-0.391,0-0.708-0.316-0.708-0.707v-16.283c0.01-0.277,0.139-0.535,0.355-0.708
									H61.235 M61.235-31.21H44.954c-0.662,0-1.141,0.892-1.141,1.494v16.283c0,0.825,0.669,1.493,1.494,1.493h16.282
									c0.825,0,1.494-0.668,1.495-1.493v-16.283C63.084-30.46,62.512-31.21,61.235-31.21L61.235-31.21z"/>
							</g>
						</g>
					</g>
				</g>
				<g id="Group_461" transform="translate(0 72.334)">
					<g id="Group_455" transform="translate(35.741 5.33)">
						<g id="Group_452">
							<g id="Group_451">
								<path id="Path_665" fill="#EDEDFA" d="M121.74-36.2H38.463c-0.867,0.017-1.583-0.673-1.6-1.54l0,0
									c0.018-0.867,0.733-1.557,1.6-1.538h83.277c0.867-0.016,1.583,0.671,1.6,1.538l0,0
									C123.323-36.873,122.607-36.183,121.74-36.2z"/>
							</g>
						</g>
						<g id="Group_454" transform="translate(0 9.44)">
							<g id="Group_453">
								<path id="Path_666" fill="#EDEDFA" d="M116.485-38.038H38.463c-0.867,0.018-1.583-0.672-1.6-1.539l0,0
									c0.018-0.865,0.734-1.554,1.6-1.538h78.022c0.866-0.016,1.583,0.673,1.6,1.538l0,0
									C118.068-38.709,117.352-38.02,116.485-38.038z"/>
							</g>
						</g>
					</g>
					<g id="Group_460">
						<g id="Group_457" transform="translate(0.488 0.488)">
							<g id="Group_456">
								<path id="Rectangle_315" fill="#FFFFFF" d="M45.044-38.337h15.832c0.733,0,1.327,0.593,1.327,1.324v15.832
									c0,0.732-0.594,1.327-1.327,1.327H45.044c-0.732,0-1.326-0.595-1.326-1.327v-15.832
									C43.718-37.744,44.312-38.337,45.044-38.337z"/>
							</g>
						</g>
						<g id="Group_459">
							<g id="Group_458">
								<path id="Path_667" fill="#B1B6F6" d="M61.904-37.456c0.216,0,0.393,0.177,0.393,0.392v16.912
									c0,0.216-0.176,0.392-0.393,0.395H44.993c-0.217,0-0.394-0.177-0.394-0.395v-16.912c0-0.217,0.176-0.392,0.394-0.392
									c0,0,0,0,0,0H61.904 M61.904-38.243H44.993c-0.651,0-1.179,0.53-1.18,1.179v16.912c0.001,0.651,0.529,1.179,1.18,1.179
									h16.911c0.65,0,1.178-0.527,1.18-1.179v-16.912C63.082-37.713,62.555-38.243,61.904-38.243z"/>
							</g>
						</g>
					</g>
				</g>
			</g>
		</g>
		<g id="Group_464" transform="translate(53.466)">
			<g id="Group_463">
				<path id="Rectangle_316" fill="#575A74" d="M39.733-5.346h68.799c0.844,0,1.527,0.685,1.527,1.526v1.26
					c0,0.844-0.684,1.526-1.527,1.526H39.733c-0.843,0-1.527-0.682-1.527-1.526v-1.26C38.206-4.661,38.89-5.346,39.733-5.346z"/>
			</g>
		</g>
		<g id="Group_466" transform="translate(50.415 1.823)">
			<g id="Group_465">
				<path id="Path_668" fill="#CED0F6" d="M81.809,12.138c-2.743,0-4.512-0.013-4.548-0.014c-0.081,0-8.983,0.07-18.038-0.122
					c-18.574-0.396-19.656-1.469-20.118-1.926c-0.192-0.181-0.303-0.433-0.305-0.697V-1.859c-0.042-0.994,0.329-1.959,1.022-2.67
					c0.839-0.742,1.916-1.158,3.035-1.169l-0.014,1.376c-0.755,0.014-1.483,0.289-2.058,0.777c-0.427,0.455-0.648,1.066-0.609,1.688
					V9.165c0.625,0.332,3.752,1.142,19.21,1.467c8.986,0.188,17.786,0.118,17.876,0.118c0.087,0,8.894,0.07,17.883-0.104
					c15.351-0.297,18.553-1.053,19.217-1.369V-1.856c0.039-0.623-0.181-1.234-0.609-1.688c-0.576-0.489-1.305-0.764-2.061-0.776l0,0
					l-0.012-1.377c1.119,0.012,2.196,0.428,3.035,1.17c0.693,0.709,1.065,1.677,1.023,2.67v11.37
					c-0.002,0.256-0.109,0.5-0.297,0.675c-0.439,0.438-1.474,1.463-20.081,1.83C90.294,12.117,85.273,12.138,81.809,12.138z"/>
			</g>
		</g>
		<g id="Group_467" transform="translate(28.106 99.937)">
			<path id="Path_669" fill="#303886" d="M48.77-10.883h-0.024c-0.348-0.008-0.665-0.2-0.835-0.503l-4.648-8.315
				c-0.265-0.473-0.097-1.073,0.377-1.338c0.474-0.265,1.073-0.095,1.338,0.378l3.838,6.864l6.569-10.517
				c0.28-0.465,0.884-0.616,1.349-0.334c0.465,0.279,0.615,0.883,0.335,1.349c-0.006,0.009-0.011,0.018-0.018,0.026l-7.45,11.927
				C49.423-11.059,49.108-10.883,48.77-10.883z"/>
		</g>
		<g id="Group_468" transform="translate(28.106 135.552)">
			<path id="Path_670" fill="#303886" d="M48.77-17.806h-0.024c-0.348-0.01-0.666-0.202-0.835-0.504l-4.648-8.315
				c-0.265-0.473-0.096-1.072,0.378-1.337s1.072-0.096,1.337,0.377l3.838,6.865l6.569-10.519c0.28-0.464,0.884-0.614,1.349-0.333
				c0.465,0.28,0.615,0.884,0.335,1.348c-0.006,0.01-0.011,0.018-0.018,0.028l-7.45,11.927
				C49.423-17.983,49.108-17.808,48.77-17.806z"/>
		</g>
		<g id="Group_469" transform="translate(27.862 172.284)">
			<path id="Path_671" fill="#303886" d="M48.816-24.949h-0.022c-0.348-0.008-0.666-0.199-0.835-0.502l-4.65-8.315
				c-0.256-0.479-0.076-1.075,0.402-1.331c0.467-0.25,1.048-0.087,1.314,0.371l3.837,6.863l6.57-10.517
				c0.298-0.454,0.908-0.58,1.361-0.282c0.439,0.289,0.575,0.871,0.307,1.323l-7.448,11.931
				C49.472-25.121,49.155-24.946,48.816-24.949z"/>
		</g>
		<g id="Group_473" transform="translate(24.497 61.651)">
			<g id="Group_470">
				<path id="Path_672" fill="#EDEDFA" d="M155.673-14.255H45.44c-0.867,0.018-1.583-0.672-1.601-1.538l0,0
					c0.017-0.867,0.733-1.557,1.601-1.54l0,0h110.233c0.866-0.016,1.582,0.672,1.599,1.54l0,0
					C157.255-14.927,156.539-14.239,155.673-14.255z"/>
			</g>
			<g id="Group_471" transform="translate(0 9.234)">
				<path id="Path_673" fill="#EDEDFA" d="M150.417-16.049H45.44c-0.867,0.016-1.583-0.672-1.601-1.539l0,0
					c0.018-0.867,0.734-1.557,1.601-1.54h104.977c0.867-0.016,1.583,0.672,1.6,1.54l0,0C152-16.722,151.284-16.033,150.417-16.049z"
					/>
			</g>
			<g id="Group_472" transform="translate(0 18.469)">
				<path id="Path_674" fill="#EDEDFA" d="M134.099-17.844H45.44c-0.867,0.016-1.583-0.673-1.601-1.539l0,0
					c0.018-0.867,0.734-1.557,1.601-1.541h88.66c0.867-0.016,1.583,0.673,1.6,1.541l0,0
					C135.683-18.517,134.966-17.828,134.099-17.844z"/>
			</g>
		</g>
		<g id="Group_476" transform="translate(24.497 43.23)">
			<g id="Group_474">
				<path id="Path_675" fill="#EDEDFA" d="M155.673-10.673H45.44c-0.867,0.017-1.583-0.672-1.601-1.539l0,0l0,0
					c0.018-0.867,0.734-1.557,1.601-1.539h110.233c0.866-0.016,1.582,0.673,1.599,1.539l0,0
					C157.255-11.345,156.539-10.656,155.673-10.673z"/>
			</g>
			<g id="Group_475" transform="translate(0 9.234)">
				<path id="Path_676" fill="#EDEDFA" d="M150.417-12.468H45.44c-0.867,0.017-1.583-0.672-1.601-1.539l0,0
					c0.017-0.866,0.733-1.555,1.601-1.539l0,0h104.977c0.867-0.016,1.583,0.673,1.6,1.539l0,0
					C152-13.14,151.284-12.452,150.417-12.468z"/>
			</g>
		</g>
		<g id="Group_480" transform="translate(23.638 212.696)">
			<g id="Group_477">
				<path id="Path_677" fill="#EDEDFA" d="M160.174-43.623H45.606c-0.866,0.017-1.582-0.672-1.6-1.538l0,0
					c0.018-0.867,0.733-1.555,1.6-1.539h114.568c0.868-0.017,1.585,0.672,1.602,1.539l0,0
					C161.758-44.295,161.041-43.605,160.174-43.623z"/>
			</g>
			<g id="Group_478" transform="translate(0 9.234)">
				<path id="Path_678" fill="#EDEDFA" d="M154.92-45.42H45.603c-0.866,0.016-1.582-0.672-1.599-1.539l0,0
					c0.017-0.866,0.733-1.556,1.599-1.538H154.92c0.866-0.018,1.583,0.672,1.601,1.538l0,0
					C156.503-46.092,155.786-45.403,154.92-45.42z"/>
			</g>
			<g id="Group_479" transform="translate(0 18.469)">
				<path id="Path_679" fill="#EDEDFA" d="M138.602-47.212H45.606c-0.866,0.016-1.582-0.674-1.6-1.541l0,0
					c0.018-0.864,0.733-1.554,1.6-1.538h92.997c0.866-0.016,1.581,0.674,1.599,1.538l0,0
					C140.183-47.886,139.468-47.196,138.602-47.212z"/>
			</g>
		</g>
		<g id="Group_483" transform="translate(98.723 190.945)" opacity="0.7">
			<g id="Group_481">
				<path id="Path_680" fill="#B1B6F6" d="M46.905-7.476c-9.665,0-17.499-7.834-17.499-17.498c0-9.663,7.833-17.496,17.499-17.496
					c9.663,0,17.495,7.833,17.495,17.496C64.391-15.315,56.563-7.487,46.905-7.476z M46.905-41.292
					c-9.013,0-16.319,7.307-16.319,16.317c0,9.013,7.307,16.317,16.319,16.317s16.317-7.305,16.317-16.317
					c-0.009-9.008-7.31-16.312-16.317-16.32V-41.292z"/>
			</g>
			<g id="Group_482" transform="translate(10.982 10.982)">
				<circle id="Ellipse_54" fill="#B1B6F6" cx="35.923" cy="-35.956" r="8.65"/>
			</g>
		</g>
	</g>
	<g id="man" transform="translate(5549.266 500.348)">
		<g id="Group_485" transform="translate(53.884 13.178)">
			<g id="Group_484">
				<path id="Path_681" fill="#FFBD9B" d="M24.858-24.977c0,0-4.004,5.525-0.268,14.695c0.289,0.712,5.43-0.161,5.43-0.161
					c-0.242,1.483-0.577,2.95-1.001,4.391c-0.21,0.634-0.75,2.346-0.575,2.949c0.655,2.254,12.782,3.053,10.641-1.348
					c-1.075-2.13-1.775-4.428-2.074-6.795C37.011-11.245,36.802-30.945,24.858-24.977z"/>
			</g>
		</g>
		<g id="Group_487" transform="translate(65.516 192.934)">
			<g id="Group_486">
				<path id="Path_682" fill="#150D53" d="M36.061-59.201v5.104c0.05,0.582-0.376,1.098-0.957,1.16H20.732v-0.646
					c-0.001-0.51,0.338-0.958,0.827-1.096c2.06-0.582,4.746-2.263,7.404-4.665C33.323-63.277,36.061-59.201,36.061-59.201z"/>
			</g>
		</g>
		<g id="Group_489" transform="translate(30.53 192.934)">
			<g id="Group_488">
				<path id="Path_683" fill="#150D53" d="M45.545-59.201v5.104c0.052,0.582-0.374,1.098-0.957,1.16H27.534v-0.646
					c-0.001-0.51,0.337-0.958,0.827-1.096c2.058-0.582,7.43-2.263,10.089-4.665C42.808-63.277,45.545-59.201,45.545-59.201z"/>
			</g>
		</g>
		<g id="Group_491" transform="translate(63.914 76.769)">
			<g id="Group_490">
				<path id="Path_684" fill="#2A3372" d="M39.047-28.69l-1.385,85.654l-7.096-0.14l-9.523-76.609l1.254-18.683L39.047-28.69z"/>
			</g>
		</g>
		<g id="Group_493" transform="translate(55.094 43.189)">
			<g id="Group_492">
				<path id="Path_685" fill="#FFBD9B" d="M33.961-24.673l5.103-7.268c0,0,11.854,11.435,11.932,14.241
					C51.129-12.61,32.612-4.098,32.612-4.098s-3.757,7.435-3.874,8.774c-0.117,1.339-1.406-6.051-2.072-8.691
					c-0.409-1.621-3.206,0.44-3.856-0.123c-0.649-0.562,5.302-5.146,6.616-4.47c0.91,0.468,13.921-7.562,13.964-8.645
					C43.44-18.593,33.961-24.673,33.961-24.673z"/>
			</g>
		</g>
		<g id="Group_495" transform="translate(52.946 0)">
			<g id="Group_494">
				<path id="Path_686" fill="#FFBD9B" d="M23.172-23.543"/>
			</g>
		</g>
		<g id="Group_497" transform="translate(43.853 88.909)">
			<g id="Group_496">
				<path id="Path_687" fill="#303886" d="M51.624-40.593L32.224,44.842h-7.279l4.872-85.67L51.624-40.593z"/>
			</g>
		</g>
		<g id="Group_508" transform="translate(0 7.985)">
			<g id="Group_499">
				<g id="Group_498">
					<path id="Path_688" fill="#575A74" d="M37.985-20.707l0.669-0.934l-4.511-3.452l-0.671,0.934L37.985-20.707z"/>
				</g>
			</g>
			<g id="Group_501" transform="translate(14.755 9.017)">
				<g id="Group_500">
					<path id="Path_689" fill="#CED0F6" d="M86.578,23.451l5.091-7.098c0.359-0.504,0.26-1.2-0.228-1.581L36.997-26.849
						l-6.395,8.915l54.443,41.619c0.472,0.361,1.146,0.272,1.506-0.199C86.56,23.473,86.57,23.464,86.578,23.451z"/>
				</g>
			</g>
			<g id="Group_503" transform="translate(3.302 2.043)">
				<g id="Group_502">
					<path id="Path_690" fill="#CED0F6" d="M48.44-19.861l-13.826-5.631l-1.785,2.489l9.216,12.057L48.44-19.861z"/>
				</g>
			</g>
			<g id="Group_505" transform="translate(14.756 9.033)">
				<g id="Group_504">
					<path id="Path_691" fill="#575A74" d="M52.484-1.22l6.383-8.902L36.986-26.849l-6.384,8.9L52.484-1.22z"/>
				</g>
			</g>
			<g id="Group_507" transform="translate(74.377 54.61)">
				<g id="Group_506">
					<path id="Path_692" fill="#CED0F6" d="M26.953-22.143l5.081-7.084c0.359-0.504,0.259-1.2-0.229-1.581l-6.414-4.902l-6.385,8.9
						l6.415,4.903c0.471,0.36,1.144,0.271,1.506-0.2C26.936-22.12,26.943-22.13,26.953-22.143z"/>
				</g>
			</g>
		</g>
		<g id="Group_510" transform="translate(49.505 37.643)">
			<g id="Group_509">
				<path id="Path_693" fill="#DE2F54" d="M34.219-30.829c0,0-3.966-1.17-7.61,9.835c-3.644,11.006-2.635,32.153-2.635,32.153h29.47
					c0,0,2.407-36.61-10.932-41.542c-0.999,1.082-2.426,1.67-3.898,1.605C36.967-28.972,35.426-29.692,34.219-30.829z"/>
			</g>
		</g>
		<g id="Group_512" transform="translate(25.817 41.059)">
			<g id="Group_511">
				<path id="Path_694" fill="#FFBD9B" d="M32.217-31.525c0.11,1.66,5.188,14.171,6.259,14.333c1.326,0.203,7.851-8.323,7.851-8.323
					l6.646,5.89c0,0-12.695,10.491-15.492,10.25C32.565-9.8,29.01-28.7,28.452-29.733C29.638-30.465,30.901-31.065,32.217-31.525z"
					/>
			</g>
		</g>
		<g id="Group_514" transform="translate(46.021 41.659)">
			<g id="Group_513">
				<path id="Path_695" fill="#C9284F" d="M30.972-17.558c0,0,11.382-9.587,7.382-13.247c-3.999-3.659-13.832,5.839-13.832,5.839
					S27.904-19.31,30.972-17.558z"/>
			</g>
		</g>
		<g id="Group_516" transform="translate(53.276 4.531)">
			<g id="Group_515">
				<path id="Path_696" fill="#575A74" d="M23.132-22.394c0.271,2.153,0.928,5.419,2.426,6.051c0.007,0,0.011,0.005,0.018,0
					c0.203-0.073,5.26-1.793,8.447,3.625c1.811,2.949,2.82,6.32,2.928,9.779c0.297-0.634,6.71-1.786,6.71-9.976
					c0-2.505-2.243-3.092-2.549-3.534c-0.337-0.482-0.124-2.318-0.582-2.864c-2.803-3.339-9.667-2.148-11.721-3.981
					C27.297-24.637,22.769-25.258,23.132-22.394z"/>
			</g>
		</g>
		<g id="Group_518" transform="translate(66.309 19.642)">
			<g id="Group_517">
				<path id="Path_697" fill="#FABCA7" d="M21.058-26.737c0.031-0.185,0.157-0.34,0.332-0.408c0.607-0.232,2.015-0.593,2.436,0.859
					c0.46,1.594-1.345,2.89-2.69,2.98c-0.293,0.015-0.542-0.211-0.558-0.504c-0.002-0.039,0.002-0.078,0.007-0.119L21.058-26.737z"
					/>
			</g>
		</g>
		<g id="Group_520" transform="translate(21.915 33.255)">
			<g id="Group_519">
				<path id="Path_698" fill="#FABCA7" d="M32.759-27.057c1.142,0.651,0.218-2.531,0.759-2.934c0.321-0.234,1.162,1.877,2.218,3.517
					c0.434,0.848,0.569,1.818,0.384,2.752c-0.967,1.047-2.467,1.208-3.786,1.794c-0.065-0.28,0.02-0.701-0.688-0.968
					c-0.664-0.229-1.261-0.617-1.741-1.128c-0.751-1.451-0.685-4.4-0.696-5.961C29.209-30.193,30.97-28.08,32.759-27.057z"/>
			</g>
		</g>
	</g>
</g>
</svg>
